<?xml version="1.0" encoding="UTF-8"?><svg version="1.1" xmlns="http://www.w3.org/2000/svg" width="691" height="361"><path d="M0 0 C-0.09087891 1.29695801 -0.09087891 1.29695801 -0.18359375 2.62011719 C-2.02060608 29.22146882 -2.80782225 55.4153 0 82 C-0.99 82.495 -0.99 82.495 -2 83 C-4.20703125 82.2578125 -4.20703125 82.2578125 -6.8125 81.125 C-10.21130585 79.6544123 -13.34348995 78.6170771 -17 78 C-18.21825857 72.0827441 -18.33647378 66.14248484 -18.5625 60.125 C-18.60568359 59.05507812 -18.64886719 57.98515625 -18.69335938 56.8828125 C-18.79892743 54.25534097 -18.89991795 51.62768622 -19 49 C-24.28 49 -29.56 49 -35 49 C-35 57.58 -35 66.16 -35 75 C-40.28 75 -45.56 75 -51 75 C-51 66.42 -51 57.84 -51 49 C-54.96 49 -58.92 49 -63 49 C-63.19441368 46.7089095 -63.38033135 44.41709663 -63.5625 42.125 C-63.71912109 40.21074219 -63.71912109 40.21074219 -63.87890625 38.2578125 C-64 35 -64 35 -63 33 C-59.04 33 -55.08 33 -51 33 C-51 24.42 -51 15.84 -51 7 C-45.72 7 -40.44 7 -35 7 C-35 15.58 -35 24.16 -35 33 C-27.08 32.505 -27.08 32.505 -19 32 C-18.95101562 30.39769531 -18.90203125 28.79539063 -18.8515625 27.14453125 C-18.7765156 25.03383726 -18.7009686 22.92316101 -18.625 20.8125 C-18.5940625 19.75740234 -18.563125 18.70230469 -18.53125 17.61523438 C-18.49257813 16.59365234 -18.45390625 15.57207031 -18.4140625 14.51953125 C-18.3826416 13.58214111 -18.3512207 12.64475098 -18.31884766 11.67895508 C-17.97297903 8.77297006 -17.34307825 6.59946974 -16 4 C-13.06640625 2.63671875 -13.06640625 2.63671875 -9.5625 1.6875 C-7.83193359 1.19830078 -7.83193359 1.19830078 -6.06640625 0.69921875 C-3 0 -3 0 0 0 Z " fill="#BBA6AD" transform="translate(388,123)"/><path d="M0 0 C0.99 0 1.98 0 3 0 C3.05607422 0.92232422 3.05607422 0.92232422 3.11328125 1.86328125 C3.17902344 2.67152344 3.24476563 3.47976562 3.3125 4.3125 C3.37050781 5.11300781 3.42851562 5.91351563 3.48828125 6.73828125 C4.10396652 9.45951614 4.7384203 10.38458593 7 12 C9.27161255 12.57323807 9.27161255 12.57323807 11.6875 12.6875 C12.49574219 12.75324219 13.30398438 12.81898437 14.13671875 12.88671875 C14.75160156 12.92410156 15.36648438 12.96148437 16 13 C16 13.99 16 14.98 16 16 C12.04 16.33 8.08 16.66 4 17 C3.67 20.63 3.34 24.26 3 28 C1.515 28.495 1.515 28.495 0 29 C0 26.03 0 23.06 0 20 C-0.69480469 20.30292969 -1.38960938 20.60585937 -2.10546875 20.91796875 C-29.69127861 32.28094493 -61.53683428 35.00759708 -90 25 C-90.33 25.66 -90.66 26.32 -91 27 C-91.33 26.01 -91.66 25.02 -92 24 C-95.07310928 22.58758455 -95.07310928 22.58758455 -98.75 21.4375 C-102.8809219 20.05044359 -106.97301734 18.66766267 -111 17 C-111 14.36 -111 11.72 -111 9 C-110.46858398 9.13575439 -109.93716797 9.27150879 -109.38964844 9.41137695 C-102.94849128 11.04097592 -96.48660843 12.56198349 -90 14 C-89.21012695 14.1753125 -88.42025391 14.350625 -87.60644531 14.53125 C-64.35417102 19.4329152 -37.20171579 19.05409836 -14 14 C-13.67 13.67 -13.34 13.34 -13 13 C-10.81980521 12.60333773 -8.6303537 12.25684763 -6.4375 11.9375 C-5.23996094 11.76089844 -4.04242188 11.58429688 -2.80859375 11.40234375 C-1.88175781 11.26957031 -0.95492187 11.13679688 0 11 C0 7.37 0 3.74 0 0 Z " fill="#E3B266" transform="translate(397,96)"/><path d="M0 0 C0.1875 3.125 0.1875 3.125 0 6 C-2 7 -2 7 -3.84765625 6.51171875 C-4.57855469 6.23972656 -5.30945313 5.96773437 -6.0625 5.6875 C-10.05564304 4.27245417 -14.00212664 3.26412269 -18.15234375 2.4296875 C-20 2 -20 2 -22 1 C-53.7421727 -4.0861727 -88.46411911 -2.94017498 -119 7 C-119 4.36 -119 1.72 -119 -1 C-117.02382862 -1.94379746 -115.0438794 -2.87968564 -113.0625 -3.8125 C-111.96035156 -4.33457031 -110.85820312 -4.85664063 -109.72265625 -5.39453125 C-76.62973775 -20.17863248 -30.82212341 -20.54808228 0 0 Z " fill="#DCC8BA" transform="translate(405,217)"/><path d="M0 0 C0.928125 0.4021875 0.928125 0.4021875 1.875 0.8125 C4.85336123 2.0297008 4.85336123 2.0297008 7.48828125 2.5546875 C10.14971119 3.17864068 12.52729452 3.83011784 15 5 C16.5625 8.1875 16.5625 8.1875 17 12 C17.17055908 13.19488037 17.34111816 14.38976074 17.5168457 15.62084961 C18.11044014 20.37665138 18.16187336 25.09110342 18.16796875 29.87890625 C18.17129715 30.80863754 18.17462555 31.73836884 18.17805481 32.6962738 C18.18309404 34.65696726 18.18546407 36.61766921 18.18530273 38.57836914 C18.18747578 41.52960937 18.2056268 44.48046699 18.22460938 47.43164062 C18.25537767 58.13528746 17.82589923 68.43875055 16 79 C3.5 83 3.5 83 -1 83 C-0.85852539 81.95440918 -0.71705078 80.90881836 -0.57128906 79.83154297 C0.87247252 68.50870004 1.3122474 57.35029894 1.26074219 45.94189453 C1.25003516 43.13421923 1.26070437 40.32718721 1.2734375 37.51953125 C1.2792466 27.28457324 0.82407722 17.24145245 -0.38909912 7.07327271 C-0.62685307 5.05257154 -0.81842451 3.02652177 -1 1 C-0.67 0.67 -0.34 0.34 0 0 Z " fill="#F3BD4B" transform="translate(303,122)"/><path d="M0 0 C0.99 0 1.98 0 3 0 C3.05607422 0.92232422 3.05607422 0.92232422 3.11328125 1.86328125 C3.17902344 2.67152344 3.24476563 3.47976562 3.3125 4.3125 C3.37050781 5.11300781 3.42851562 5.91351563 3.48828125 6.73828125 C4.10396652 9.45951614 4.7384203 10.38458593 7 12 C9.27161255 12.57323807 9.27161255 12.57323807 11.6875 12.6875 C12.49574219 12.75324219 13.30398438 12.81898437 14.13671875 12.88671875 C14.75160156 12.92410156 15.36648438 12.96148437 16 13 C16 13.99 16 14.98 16 16 C12.04 16.33 8.08 16.66 4 17 C3.67 20.63 3.34 24.26 3 28 C1.515 28.495 1.515 28.495 0 29 C0 26.03 0 23.06 0 20 C-0.69480469 20.30292969 -1.38960938 20.60585937 -2.10546875 20.91796875 C-27.85421245 31.524232 -56.94655333 34.48896736 -84 27 C-84.66 26.34 -85.32 25.68 -86 25 C-81.55657845 25.423183 -77.48180848 25.8717136 -73.15625 27.0234375 C-67.00473847 28.42130558 -60.78993347 28.29932898 -54.51586914 28.26074219 C-52.43801824 28.25000268 -50.36102816 28.26069762 -48.28320312 28.2734375 C-41.61030636 28.28112851 -35.33640386 28.26243633 -29 26 C-27.4251892 24.02965198 -27.4251892 24.02965198 -27 22 C-30.32885499 19.78076334 -31.29205375 19.76909944 -35.15625 19.83984375 C-36.17976563 19.85080078 -37.20328125 19.86175781 -38.2578125 19.87304688 C-39.86269531 19.90495117 -39.86269531 19.90495117 -41.5 19.9375 C-49.41346231 20.07004558 -57.12943303 19.88416871 -65 19 C-65 18.67 -65 18.34 -65 18 C-64.20118408 17.98541748 -63.40236816 17.97083496 -62.5793457 17.95581055 C-36.11286488 19.46602766 -36.11286488 19.46602766 -13 13 C-10.81980521 12.60333773 -8.6303537 12.25684763 -6.4375 11.9375 C-5.23996094 11.76089844 -4.04242188 11.58429688 -2.80859375 11.40234375 C-1.88175781 11.26957031 -0.95492187 11.13679688 0 11 C0 7.37 0 3.74 0 0 Z " fill="#E3D2C1" transform="translate(397,96)"/><path d="M0 0 C1.67542976 0.28604898 3.34385343 0.61781233 5 1 C5.33 2.98 5.66 4.96 6 7 C6.928125 6.95875 7.85625 6.9175 8.8125 6.875 C12 7 12 7 15 9 C16.1732068 13.00780042 16.27870784 16.90839429 15.25 20.9375 C14 23 14 23 11 25 C8.1171875 25.046875 8.1171875 25.046875 4.875 24.75 C3.79992187 24.66234375 2.72484375 24.5746875 1.6171875 24.484375 C0.75351562 24.32453125 -0.11015625 24.1646875 -1 24 C-1.33 23.34 -1.66 22.68 -2 22 C-2.33 22.66 -2.66 23.32 -3 24 C-5.58203125 24.58984375 -5.58203125 24.58984375 -8.8125 24.9375 C-10.39998047 25.13666016 -10.39998047 25.13666016 -12.01953125 25.33984375 C-15 25 -15 25 -17.37109375 22.9296875 C-19.33813132 19.39185014 -19.41238917 17.20663201 -19.25 13.1875 C-19.21390625 12.02605469 -19.1778125 10.86460937 -19.140625 9.66796875 C-19.07101562 8.34732422 -19.07101562 8.34732422 -19 7 C-17.02 7 -15.04 7 -13 7 C-11.71682108 10.84953676 -11.93356363 13.94738135 -12 18 C-11.01 18.33 -10.02 18.66 -9 19 C-9.01160156 18.21753906 -9.02320313 17.43507813 -9.03515625 16.62890625 C-9.04417969 15.61699219 -9.05320312 14.60507812 -9.0625 13.5625 C-9.07410156 12.55316406 -9.08570313 11.54382813 -9.09765625 10.50390625 C-9 8 -9 8 -8 7 C-6.33382885 6.95936168 -4.66611905 6.957279 -3 7 C-2.67 9.64 -2.34 12.28 -2 15 C-1.90912109 13.50146484 -1.90912109 13.50146484 -1.81640625 11.97265625 C-1.73261719 10.68230469 -1.64882813 9.39195312 -1.5625 8.0625 C-1.48128906 6.77472656 -1.40007812 5.48695313 -1.31640625 4.16015625 C-1 1 -1 1 0 0 Z M6 12 C5.67 14.31 5.34 16.62 5 19 C6.65 18.67 8.3 18.34 10 18 C10 16.02 10 14.04 10 12 C8.68 12 7.36 12 6 12 Z " fill="#F6F7F7" transform="translate(398,243)"/><path d="M0 0 C15.20130947 0.63471021 28.14940199 3.43293466 41 12 C41.1875 15.125 41.1875 15.125 41 18 C39 19 39 19 37.15234375 18.51171875 C36.42144531 18.23972656 35.69054687 17.96773437 34.9375 17.6875 C30.94435696 16.27245417 26.99787336 15.26412269 22.84765625 14.4296875 C21 14 21 14 19 13 C6.33303772 10.970323 -6.39191399 10.80601229 -19.1875 10.8125 C-19.95093719 10.81168427 -20.71437439 10.81086853 -21.50094604 10.81002808 C-29.40097795 10.81098217 -37.15419499 10.97451096 -45 12 C-48.01249471 12.10330915 -50.98399586 12.04787308 -54 12 C-54 11.67 -54 11.34 -54 11 C-36.56422321 8.09188877 -19.63419026 7.63453427 -2 8 C-2.495 6.515 -2.495 6.515 -3 5 C-1.5625 2.3125 -1.5625 2.3125 0 0 Z " fill="#9FA3D8" transform="translate(364,205)"/><path d="M0 0 C1.65 0 3.3 0 5 0 C6 1 6 1 6.09765625 2.84765625 C6.06510417 4.8984375 6.03255208 6.94921875 6 9 C6.99 8.34 7.98 7.68 9 7 C12.40779708 6.40832906 15.60101383 6.33244134 19 7 C21.625 10 21.625 10 23 13 C23.99 11.02 24.98 9.04 26 7 C27.65 7 29.3 7 31 7 C29.61766628 15.15576897 26.98113583 25.01886417 21 31 C17.875 31.125 17.875 31.125 15 31 C15 29.68 15 28.36 15 27 C15.99 26.34 16.98 25.68 18 25 C18.33 24.34 18.66 23.68 19 23 C18.26821134 20.92803369 17.44100997 18.8891448 16.5625 16.875 C16.08941406 15.77929688 15.61632812 14.68359375 15.12890625 13.5546875 C14.75636719 12.71164063 14.38382812 11.86859375 14 11 C11.74114676 14.25397508 11.74114676 14.25397508 11 18 C11.99 18.33 12.98 18.66 14 19 C14.33 20.65 14.66 22.3 15 24 C12.125 24.125 12.125 24.125 9 24 C8.34 23.34 7.68 22.68 7 22 C6.67 22.66 6.34 23.32 6 24 C4.02 24 2.04 24 0 24 C0 16.08 0 8.16 0 0 Z " fill="#F2F2F2" transform="translate(326,243)"/><path d="M0 0 C0.928125 0.4021875 0.928125 0.4021875 1.875 0.8125 C4.85336123 2.0297008 4.85336123 2.0297008 7.48828125 2.5546875 C10.14971119 3.17864068 12.52729452 3.83011784 15 5 C16.5625 8.1875 16.5625 8.1875 17 12 C17.17055908 13.19488037 17.34111816 14.38976074 17.5168457 15.62084961 C18.11044014 20.37665138 18.16187336 25.09110342 18.16796875 29.87890625 C18.17129715 30.80863754 18.17462555 31.73836884 18.17805481 32.6962738 C18.18309404 34.65696726 18.18546407 36.61766921 18.18530273 38.57836914 C18.18747578 41.52960937 18.2056268 44.48046699 18.22460938 47.43164062 C18.25537767 58.13528746 17.82589923 68.43875055 16 79 C3.5 83 3.5 83 -1 83 C-0.85852539 81.95440918 -0.71705078 80.90881836 -0.57128906 79.83154297 C0.87247252 68.50870004 1.3122474 57.35029894 1.26074219 45.94189453 C1.25003516 43.13421923 1.26070437 40.32718721 1.2734375 37.51953125 C1.2792466 27.28457324 0.82407722 17.24145245 -0.38909912 7.07327271 C-0.62685307 5.05257154 -0.81842451 3.02652177 -1 1 C-0.67 0.67 -0.34 0.34 0 0 Z M2 4 C1.9723381 5.49988961 1.9533139 6.99993869 1.9375 8.5 C1.92589844 9.3353125 1.91429687 10.170625 1.90234375 11.03125 C1.95074711 14.09510103 1.95074711 14.09510103 2.48632812 17.48046875 C3.15892513 22.73856683 3.22867185 27.98620562 3.31640625 33.28125 C3.33718735 34.33534058 3.35796844 35.38943115 3.37937927 36.47546387 C3.44435675 39.81691457 3.50351711 43.15843865 3.5625 46.5 C3.60573457 48.77604902 3.64935038 51.05209083 3.69335938 53.328125 C3.79998446 58.88534087 3.90184355 64.44262845 4 70 C5.32 70 6.64 70 8 70 C8 70.99 8 71.98 8 73 C11.43899622 71.85366793 11.87088868 71.33419294 13.6640625 68.30859375 C17.79440646 59.5939708 16.55481477 49.46896407 16.375 40.0625 C16.35846244 38.08139746 16.3441223 36.1002753 16.33203125 34.11914062 C16.25398956 25.05063945 16.13589403 16.01025678 15 7 C13.02 7 11.04 7 9 7 C8.67 6.01 8.34 5.02 8 4 C6.02 4 4.04 4 2 4 Z " fill="#E1AD65" transform="translate(303,122)"/><path d="M0 0 C-0.09087891 1.16341919 -0.09087891 1.16341919 -0.18359375 2.3503418 C-1.8702358 24.59617735 -2.24505146 46.6965473 -2 69 C-2.33 69 -2.66 69 -3 69 C-3.88336015 58.70971825 -4.19913779 48.50921407 -4.1875 38.1875 C-4.18789276 37.44419434 -4.18828552 36.70088867 -4.18869019 35.93505859 C-4.1712331 8.3424662 -4.1712331 8.3424662 -1 2 C-2.98 2.99 -2.98 2.99 -5 4 C-8.3 4.33 -11.6 4.66 -15 5 C-15.66 14.9 -16.32 24.8 -17 35 C-19.949375 35.020625 -22.89875 35.04125 -25.9375 35.0625 C-26.86812256 35.071604 -27.79874512 35.08070801 -28.75756836 35.09008789 C-29.48596924 35.09258545 -30.21437012 35.09508301 -30.96484375 35.09765625 C-31.7137085 35.10289307 -32.46257324 35.10812988 -33.23413086 35.11352539 C-35 35 -35 35 -36 34 C-36.08737645 32.14630389 -36.10698153 30.28932459 -36.09765625 28.43359375 C-36.09443359 27.30888672 -36.09121094 26.18417969 -36.08789062 25.02539062 C-36.07951172 23.84138672 -36.07113281 22.65738281 -36.0625 21.4375 C-36.05798828 20.24962891 -36.05347656 19.06175781 -36.04882812 17.83789062 C-36.03699686 14.89190588 -36.01906076 11.94594684 -36 9 C-40.62 9 -45.24 9 -50 9 C-50 17.58 -50 26.16 -50 35 C-53.96 35 -57.92 35 -62 35 C-62 39.29 -62 43.58 -62 48 C-58.04 48 -54.08 48 -50 48 C-50 56.58 -50 65.16 -50 74 C-45.38 74 -40.76 74 -36 74 C-36 65.42 -36 56.84 -36 48 C-29.73 48 -23.46 48 -17 48 C-16.34 57.9 -15.68 67.8 -15 78 C-15.66 78 -16.32 78 -17 78 C-18.21825857 72.0827441 -18.33647378 66.14248484 -18.5625 60.125 C-18.60568359 59.05507812 -18.64886719 57.98515625 -18.69335938 56.8828125 C-18.79892743 54.25534097 -18.89991795 51.62768622 -19 49 C-24.28 49 -29.56 49 -35 49 C-35 57.58 -35 66.16 -35 75 C-40.28 75 -45.56 75 -51 75 C-51 66.42 -51 57.84 -51 49 C-54.96 49 -58.92 49 -63 49 C-63.19441368 46.7089095 -63.38033135 44.41709663 -63.5625 42.125 C-63.71912109 40.21074219 -63.71912109 40.21074219 -63.87890625 38.2578125 C-64 35 -64 35 -63 33 C-59.04 33 -55.08 33 -51 33 C-51 24.42 -51 15.84 -51 7 C-45.72 7 -40.44 7 -35 7 C-35 15.58 -35 24.16 -35 33 C-27.08 32.505 -27.08 32.505 -19 32 C-18.95101562 30.39769531 -18.90203125 28.79539063 -18.8515625 27.14453125 C-18.7765156 25.03383726 -18.7009686 22.92316101 -18.625 20.8125 C-18.5940625 19.75740234 -18.563125 18.70230469 -18.53125 17.61523438 C-18.49257813 16.59365234 -18.45390625 15.57207031 -18.4140625 14.51953125 C-18.3826416 13.58214111 -18.3512207 12.64475098 -18.31884766 11.67895508 C-17.97297903 8.77297006 -17.34307825 6.59946974 -16 4 C-13.06640625 2.63671875 -13.06640625 2.63671875 -9.5625 1.6875 C-7.83193359 1.19830078 -7.83193359 1.19830078 -6.06640625 0.69921875 C-3 0 -3 0 0 0 Z " fill="#E5DEDC" transform="translate(388,123)"/><path d="M0 0 C0.79712402 0.20363159 0.79712402 0.20363159 1.61035156 0.41137695 C14.66902028 3.71519218 27.64679186 6.2358275 41 8 C40.34 8.33 39.68 8.66 39 9 C39 9.66 39 10.32 39 11 C40.98 11.33 42.96 11.66 45 12 C43.88671875 14.4765625 43.88671875 14.4765625 42 17 C39.14453125 17.5234375 39.14453125 17.5234375 35.8125 17.375 C34.66007812 17.33117187 33.50765625 17.28734375 32.3203125 17.2421875 C28.50965214 16.96423345 24.77447117 16.59207391 21 16 C20.67 16.66 20.34 17.32 20 18 C19.67 17.01 19.34 16.02 19 15 C15.92689072 13.58758455 15.92689072 13.58758455 12.25 12.4375 C8.1190781 11.05044359 4.02698266 9.66766267 0 8 C0 5.36 0 2.72 0 0 Z " fill="#FAD644" transform="translate(286,105)"/><path d="M0 0 C0 1.65 0 3.3 0 5 C-2.31 5 -4.62 5 -7 5 C-7 6.65 -7 8.3 -7 10 C-4.69 10.66 -2.38 11.32 0 12 C0.042721 13.66611905 0.04063832 15.33382885 0 17 C-1 18 -1 18 -4.375 18.25 C-8 18 -8 18 -9.75 16.5625 C-10.1625 16.046875 -10.575 15.53125 -11 15 C-11.99 14.67 -12.98 14.34 -14 14 C-14 14.99 -14 15.98 -14 17 C-15.93505023 17.24900646 -17.87325934 17.47356242 -19.8125 17.6875 C-20.89144531 17.81511719 -21.97039062 17.94273437 -23.08203125 18.07421875 C-26 18 -26 18 -27.875 17 C-29.62035561 13.89714559 -29.31328263 10.76668461 -29.1875 7.3125 C-29.17396484 6.61060547 -29.16042969 5.90871094 -29.14648438 5.18554688 C-29.11120182 3.45670171 -29.05739583 1.72825235 -29 0 C-27.68 0 -26.36 0 -25 0 C-24.67 3.63 -24.34 7.26 -24 11 C-22.68 11.33 -21.36 11.66 -20 12 C-20 8.04 -20 4.08 -20 0 C-18.02 0 -16.04 0 -14 0 C-13.67 1.32 -13.34 2.64 -13 4 C-12.2575 3.360625 -11.515 2.72125 -10.75 2.0625 C-6.85783663 -0.85662253 -4.63424507 -1.48957877 0 0 Z M-14 10 C-13 12 -13 12 -13 12 Z " fill="#F5F5F5" transform="translate(324,250)"/><path d="M0 0 C4.62 0 9.24 0 14 0 C14.33 8.58 14.66 17.16 15 26 C14.34 26.33 13.68 26.66 13 27 C12.17648136 20.61773055 11.87913782 14.43255401 12 8 C10.02 8.99 10.02 8.99 8 10 C8 9.34 8 8.68 8 8 C7.01 8.495 7.01 8.495 6 9 C5.67 9.99 5.34 10.98 5 12 C3.68 12 2.36 12 1 12 C1.33 12.99 1.66 13.98 2 15 C1.67 15.99 1.34 16.98 1 18 C1.66 18 2.32 18 3 18 C3 18.99 3 19.98 3 21 C2.34 21 1.68 21 1 21 C1.33 21.598125 1.66 22.19625 2 22.8125 C3 25 3 25 3 28 C1.02 28.33 -0.96 28.66 -3 29 C-3.33 31.64 -3.66 34.28 -4 37 C-3.38125 36.79375 -2.7625 36.5875 -2.125 36.375 C-1.42375 36.25125 -0.7225 36.1275 0 36 C0.66 36.66 1.32 37.32 2 38 C1 39 1 39 -1.94140625 39.09765625 C-6.97070312 39.04882812 -6.97070312 39.04882812 -12 39 C-12 34.71 -12 30.42 -12 26 C-8.04 26 -4.08 26 0 26 C0 17.42 0 8.84 0 0 Z " fill="#D2AE83" transform="translate(338,132)"/><path d="M0 0 C1.65 0 3.3 0 5 0 C6 1 6 1 6.09765625 2.84765625 C6.06510417 4.8984375 6.03255208 6.94921875 6 9 C8.31 9 10.62 9 13 9 C13 6.03 13 3.06 13 0 C14.66611905 -0.042721 16.33382885 -0.04063832 18 0 C19 1 19 1 19.11352539 3.13305664 C19.10828857 4.04949951 19.10305176 4.96594238 19.09765625 5.91015625 C19.09443359 6.89951172 19.09121094 7.88886719 19.08789062 8.90820312 C19.07951172 9.94912109 19.07113281 10.99003906 19.0625 12.0625 C19.05798828 13.10728516 19.05347656 14.15207031 19.04882812 15.22851562 C19.03699913 17.8190666 19.02051689 20.40950559 19 23 C17.02 23 15.04 23 13 23 C13 20.03 13 17.06 13 14 C10.69 14 8.38 14 6 14 C6 16.97 6 19.94 6 23 C4.02 23 2.04 23 0 23 C0 15.41 0 7.82 0 0 Z " fill="#F7F7F7" transform="translate(358,244)"/><path d="M0 0 C0.87140625 0.00064453 1.7428125 0.00128906 2.640625 0.00195312 C6.79753163 0.03046849 10.69843563 0.14112491 14.75 1.1875 C14.42 2.13625 14.09 3.085 13.75 4.0625 C12.64840809 6.95812452 12.64840809 6.95812452 12.75 9.1875 C7.98153759 9.38015746 3.21283151 9.55881528 -1.55664062 9.72460938 C-3.17852784 9.78295064 -4.80028304 9.84509217 -6.421875 9.91113281 C-8.7549638 10.00548567 -11.0881884 10.08608886 -13.421875 10.1640625 C-14.50647003 10.21235703 -14.50647003 10.21235703 -15.61297607 10.2616272 C-19.35665109 10.37261534 -22.07747337 10.29055499 -25.25 8.1875 C-24.59 6.2075 -23.93 4.2275 -23.25 2.1875 C-21.93 2.1875 -20.61 2.1875 -19.25 2.1875 C-17.87278586 1.89062861 -16.50276457 1.55897866 -15.140625 1.19921875 C-10.05429044 0.01928078 -5.20174028 -0.07442249 0 0 Z " fill="#BCA4A3" transform="translate(349.25,203.8125)"/><path d="M0 0 C0.99 0 1.98 0 3 0 C3.05607422 0.92232422 3.05607422 0.92232422 3.11328125 1.86328125 C3.17902344 2.67152344 3.24476563 3.47976562 3.3125 4.3125 C3.37050781 5.11300781 3.42851562 5.91351563 3.48828125 6.73828125 C4.10396652 9.45951614 4.7384203 10.38458593 7 12 C9.27161255 12.57323807 9.27161255 12.57323807 11.6875 12.6875 C12.49574219 12.75324219 13.30398438 12.81898437 14.13671875 12.88671875 C14.75160156 12.92410156 15.36648438 12.96148437 16 13 C16 13.99 16 14.98 16 16 C12.04 16.33 8.08 16.66 4 17 C3.67 20.63 3.34 24.26 3 28 C1.515 28.495 1.515 28.495 0 29 C0 26.03 0 23.06 0 20 C-2.97 20.495 -2.97 20.495 -6 21 C-5 19 -5 19 -2 17 C-5.31114834 15.87119943 -8.58978257 14.78697325 -12 14 C-12 14.66 -12 15.32 -12 16 C-15.89031956 16.5816722 -19.7822887 17.15063364 -23.67602539 17.70898438 C-25.63455665 17.99234028 -27.59171967 18.2851032 -29.54882812 18.578125 C-41.533253 20.28582931 -52.98320914 20.34857773 -65 19 C-65 18.67 -65 18.34 -65 18 C-64.20118408 17.98541748 -63.40236816 17.97083496 -62.5793457 17.95581055 C-36.11286488 19.46602766 -36.11286488 19.46602766 -13 13 C-10.81980521 12.60333773 -8.6303537 12.25684763 -6.4375 11.9375 C-5.23996094 11.76089844 -4.04242188 11.58429688 -2.80859375 11.40234375 C-1.88175781 11.26957031 -0.95492187 11.13679688 0 11 C0 7.37 0 3.74 0 0 Z " fill="#EDE6E0" transform="translate(397,96)"/><path d="M0 0 C0.495 0.99 0.495 0.99 1 2 C1.61875 2.309375 2.2375 2.61875 2.875 2.9375 C5.07123876 4.03561938 6.32086267 5.23930457 8 7 C6.98292969 7.18175781 6.98292969 7.18175781 5.9453125 7.3671875 C5.01460938 7.53476563 4.08390625 7.70234375 3.125 7.875 C1.76761719 8.11863281 1.76761719 8.11863281 0.3828125 8.3671875 C-1.29167969 8.68042969 -1.29167969 8.68042969 -3 9 C-3.7336377 9.13422363 -4.46727539 9.26844727 -5.22314453 9.40673828 C-11.63852532 10.62574961 -17.86176886 12.28649536 -24.125 14.125 C-25.08148438 14.40214844 -26.03796875 14.67929688 -27.0234375 14.96484375 C-29.35005287 15.63956221 -31.67551422 16.3179883 -34 17 C-34 14.36 -34 11.72 -34 9 C-28.20843638 5.52506183 -21.53217065 5.88540051 -15 6 C-14.67 5.34 -14.34 4.68 -14 4 C-10.09567131 4 -7.61973402 4.68373308 -4 6 C-4 5.01 -4 4.02 -4 3 C-2.68 3 -1.36 3 0 3 C0 2.01 0 1.02 0 0 Z " fill="#CAA781" transform="translate(320,207)"/><path d="M0 0 C0.79712402 0.20363159 0.79712402 0.20363159 1.61035156 0.41137695 C14.66902028 3.71519218 27.64679186 6.2358275 41 8 C39 10 39 10 36.6875 10.23046875 C35.800625 10.21628906 34.91375 10.20210937 34 10.1875 C32.6696875 10.17783203 32.6696875 10.17783203 31.3125 10.16796875 C29 10 29 10 27 9 C25.10719569 8.81904906 23.21035061 8.6791809 21.3125 8.5625 C16.5840048 8.20971215 12.47801024 7.5265944 8 6 C9.80402799 9.18357881 10.82785963 9.94261988 14.375 11.125 C15.57125 11.41375 16.7675 11.7025 18 12 C19.67632417 12.64199649 21.34750513 13.29894157 23 14 C23 14.66 23 15.32 23 16 C22.34 16 21.68 16 21 16 C20.67 16.66 20.34 17.32 20 18 C19.67 17.01 19.34 16.02 19 15 C15.92689072 13.58758455 15.92689072 13.58758455 12.25 12.4375 C8.1190781 11.05044359 4.02698266 9.66766267 0 8 C0 5.36 0 2.72 0 0 Z " fill="#F6E276" transform="translate(286,105)"/><path d="M0 0 C1.65 0.33 3.3 0.66 5 1 C5 6.61 5 12.22 5 18 C8.96 17.505 8.96 17.505 13 17 C13 18.98 13 20.96 13 23 C8.38 23 3.76 23 -1 23 C-1.02682987 19.35411831 -1.04675569 15.70843154 -1.0625 12.0625 C-1.07087891 11.02158203 -1.07925781 9.98066406 -1.08789062 8.90820312 C-1.09272461 7.42416992 -1.09272461 7.42416992 -1.09765625 5.91015625 C-1.10289307 4.99371338 -1.10812988 4.07727051 -1.11352539 3.13305664 C-1 1 -1 1 0 0 Z " fill="#F3F3F3" transform="translate(281,244)"/><path d="M0 0 C0.433125 0.66 0.86625 1.32 1.3125 2 C0.6525 2 -0.0075 2 -0.6875 2 C-1.0175 3.32 -1.3475 4.64 -1.6875 6 C-9.02491969 8.3479743 -16.03143782 8.19355213 -23.6875 8 C-20.59940305 6.23537317 -19.45437864 6 -15.6875 6 C-16.18506092 3.24358584 -16.18506092 3.24358584 -17.6875 1 C-20.01567964 0.63239269 -22.3493385 0.29758419 -24.6875 0 C-24.6875 -0.33 -24.6875 -0.66 -24.6875 -1 C-4.30975623 -3.20726045 -4.30975623 -3.20726045 0 0 Z " fill="#CDA888" transform="translate(369.6875,117)"/><path d="M0 0 C2.31 0.33 4.62 0.66 7 1 C9.58545777 9.27346486 10.15698826 17.2539562 10.16796875 25.87890625 C10.17129715 26.80863754 10.17462555 27.73836884 10.17805481 28.6962738 C10.18309404 30.65696726 10.18546407 32.61766921 10.18530273 34.57836914 C10.18747578 37.52960937 10.2056268 40.48046699 10.22460938 43.43164062 C10.25537767 54.13528746 9.82589923 64.43875055 8 75 C7.34 74.67 6.68 74.34 6 74 C6.16298584 72.98035156 6.32597168 71.96070313 6.49389648 70.91015625 C7.2966902 64.44320197 7.12328486 57.94262535 7.09765625 51.4375 C7.09578795 50.03645885 7.094366 48.63541704 7.09336853 47.234375 C7.08957576 43.57165682 7.07977366 39.90897917 7.06866455 36.24627686 C7.05838026 32.49882556 7.05385596 28.75136763 7.04882812 25.00390625 C7.03814804 17.66925249 7.02111119 10.33463195 7 3 C5.02 3 3.04 3 1 3 C0.67 2.01 0.34 1.02 0 0 Z " fill="#F3E2BF" transform="translate(311,126)"/><path d="M0 0 C0.33 -0.66 0.66 -1.32 1 -2 C3.64 -1.01 6.28 -0.02 9 1 C9 1.33 9 1.66 9 2 C7.33343119 2.02757191 5.66672149 2.04664803 4 2.0625 C3.071875 2.07410156 2.14375 2.08570313 1.1875 2.09765625 C-2 2 -2 2 -5.69165039 1.50219727 C-9.83678567 0.97029518 -13.94541319 0.85504406 -18.12109375 0.8671875 C-18.86529068 0.86623077 -19.60948761 0.86527405 -20.37623596 0.86428833 C-21.93840622 0.86361279 -23.5005794 0.86542302 -25.06274414 0.86962891 C-27.42796259 0.87497843 -29.79299053 0.86966642 -32.15820312 0.86328125 C-39.50818852 0.86032647 -46.70319529 1.02658172 -54 2 C-57.01249471 2.10330915 -59.98399586 2.04787308 -63 2 C-63 1.67 -63 1.34 -63 1 C-18.32773109 -6.1092437 -18.32773109 -6.1092437 0 0 Z " fill="#E5DFDF" transform="translate(373,215)"/><path d="M0 0 C0.33 0 0.66 0 1 0 C0.67 5.28 0.34 10.56 0 16 C-11.5 21 -11.5 21 -16 21 C-15.67 17.7 -15.34 14.4 -15 11 C-13 14 -13 14 -13 17 C-11.68 17 -10.36 17 -9 17 C-8.731875 16.030625 -8.46375 15.06125 -8.1875 14.0625 C-7.5996875 12.5465625 -7.5996875 12.5465625 -7 11 C-6.01 10.67 -5.02 10.34 -4 10 C-2.88319294 7.15020361 -2.88319294 7.15020361 -2 4 C-1.36184656 2.65278717 -0.70674629 1.31252882 0 0 Z " fill="#D6B07E" transform="translate(318,184)"/><path d="M0 0 C2.29295236 0.28138058 4.58435456 0.5754186 6.875 0.875 C8.78925781 1.11863281 8.78925781 1.11863281 10.7421875 1.3671875 C14 2 14 2 16 4 C15.38125 4.268125 14.7625 4.53625 14.125 4.8125 C11.7004767 5.95556848 11.7004767 5.95556848 10 9 C6.47813294 10.47821484 2.98059921 9.89825393 -0.75 9.5625 C-1.92046875 9.46066406 -3.0909375 9.35882813 -4.296875 9.25390625 C-5.18890625 9.17011719 -6.0809375 9.08632812 -7 9 C-7 8.67 -7 8.34 -7 8 C-5.35 8 -3.7 8 -2 8 C-2.33 7.01 -2.66 6.02 -3 5 C-1.5625 2.3125 -1.5625 2.3125 0 0 Z " fill="#A8A3CB" transform="translate(364,205)"/><path d="M0 0 C1.65 0 3.3 0 5 0 C6 1 6 1 6.09765625 2.84765625 C6.06510417 4.8984375 6.03255208 6.94921875 6 9 C6.99 8.34 7.98 7.68 9 7 C10.32 7 11.64 7 13 7 C12.46104623 10.7726764 11.00464642 12.68212991 8 15 C5.75 14.75 5.75 14.75 4 14 C4 13.34 4 12.68 4 12 C3.01 12 2.02 12 1 12 C0.67 8.04 0.34 4.08 0 0 Z " fill="#F9F9F9" transform="translate(326,243)"/><path d="M0 0 C0.598125 0.185625 1.19625 0.37125 1.8125 0.5625 C4.16408762 1.22093687 4.16408762 1.22093687 7 0 C7.66 0.66 8.32 1.32 9 2 C3.04894313 5.33259185 -3.32189497 6.29704158 -10 7 C-10 7.66 -10 8.32 -10 9 C-12.31 9.33 -14.62 9.66 -17 10 C-17.33 9.01 -17.66 8.02 -18 7 C-12.12419968 1.79571972 -7.51736666 1.87258701 0 2 C0 1.34 0 0.68 0 0 Z " fill="#D9A869" transform="translate(305,211)"/><path d="M0 0 C2 1.75 2 1.75 4 4 C4 5.32 4 6.64 4 8 C6.64 8.33 9.28 8.66 12 9 C12.33 6.36 12.66 3.72 13 1 C15.58926331 3.58926331 15.37398043 5.02705279 15.625 8.625 C15.69976562 9.62789062 15.77453125 10.63078125 15.8515625 11.6640625 C15.92503906 12.82035156 15.92503906 12.82035156 16 14 C14 15 14 15 10.99609375 14.0390625 C9.82175781 13.57242188 8.64742188 13.10578125 7.4375 12.625 C6.26058594 12.16351563 5.08367187 11.70203125 3.87109375 11.2265625 C1 10 1 10 0 9 C-0.07179964 7.48071962 -0.08392007 5.95832518 -0.0625 4.4375 C-0.05347656 3.61121094 -0.04445313 2.78492188 -0.03515625 1.93359375 C-0.02355469 1.29550781 -0.01195312 0.65742188 0 0 Z " fill="#A8A8D1" transform="translate(372,191)"/><path d="M0 0 C2.9719385 1.12451727 5.33440687 2.22293791 8 4 C6.02 4 4.04 4 2 4 C2.07105453 4.58365326 2.14210907 5.16730652 2.21531677 5.76864624 C2.96999559 12.5052408 3.1312081 19.13986159 3.09765625 25.9140625 C3.0962413 27.00971527 3.09482635 28.10536804 3.09336853 29.23422241 C3.08781771 32.69784395 3.07527459 36.16139834 3.0625 39.625 C3.05747864 41.98828031 3.05291685 44.35156164 3.04882812 46.71484375 C3.03786444 52.47658501 3.02117606 58.2382877 3 64 C2.67 64 2.34 64 2 64 C1.98018066 62.80213867 1.96036133 61.60427734 1.93994141 60.37011719 C1.86247003 55.822254 1.77400371 51.27465382 1.68261719 46.72705078 C1.64489978 44.77821128 1.60996074 42.82931555 1.578125 40.88037109 C1.39061065 29.52989335 0.92319673 18.32258179 -0.40829468 7.04193115 C-0.6406504 5.03170329 -0.82551646 3.01607558 -1 1 C-0.67 0.67 -0.34 0.34 0 0 Z " fill="#F3E5B5" transform="translate(303,122)"/><path d="M0 0 C0.33 0 0.66 0 1 0 C1.75336536 7.20306718 2.15894651 14.31757361 2.16796875 21.55859375 C2.17129715 22.51016861 2.17462555 23.46174347 2.17805481 24.44215393 C2.1830721 26.43107628 2.18546477 28.42000688 2.18530273 30.40893555 C2.18751226 33.45440183 2.20578493 36.49951833 2.22460938 39.54492188 C2.22753981 41.48697794 2.22952694 43.4290357 2.23046875 45.37109375 C2.23765427 46.2783873 2.24483978 47.18568085 2.25224304 48.12046814 C2.24916641 48.96557449 2.24608978 49.81068085 2.24291992 50.68139648 C2.24434494 51.42099106 2.24576996 52.16058563 2.24723816 52.92259216 C1.96420896 55.30073267 1.17769852 56.9310672 0 59 C-0.66 58.67 -1.32 58.34 -2 58 C-1.846521 57.47349854 -1.69304199 56.94699707 -1.53491211 56.40454102 C1.16137976 44.28414913 0.1229002 30.90123575 0.0625 18.5625 C0.05746935 16.75195438 0.05290924 14.94140739 0.04882812 13.13085938 C0.03795937 8.75387154 0.02078325 4.37695152 0 0 Z " fill="#EBBF67" transform="translate(317,129)"/><path d="M0 0 C5.4389165 -0.21755666 9.87080814 -0.10428384 15 2 C13.89453125 4.4765625 13.89453125 4.4765625 12 7 C9.07421875 7.5234375 9.07421875 7.5234375 5.6875 7.375 C4.57761719 7.34148437 3.46773438 7.30796875 2.32421875 7.2734375 C-0.83115542 7.01388851 -3.88792859 6.5743914 -7 6 C-7 5.34 -7 4.68 -7 4 C0.42857143 3.85714286 0.42857143 3.85714286 4 5 C3.24849977 1.72226496 3.24849977 1.72226496 0 0 Z " fill="#F4BE48" transform="translate(316,115)"/><path d="M0 0 C1.32 0 2.64 0 4 0 C4.03738281 0.71285156 4.07476562 1.42570313 4.11328125 2.16015625 C4.52095082 8.0993423 5.28662226 12.69121747 8 18 C3.57608696 18.35869565 3.57608696 18.35869565 1.34375 16.96875 C-0.72035873 13.9445907 -0.3157224 10.83368446 -0.1875 7.3125 C-0.17396484 6.61060547 -0.16042969 5.90871094 -0.14648438 5.18554688 C-0.11120182 3.45670171 -0.05739583 1.72825235 0 0 Z " fill="#EEEEEE" transform="translate(295,250)"/><path d="M0 0 C5.875 1.875 5.875 1.875 7 3 C7.04080783 4.99958364 7.04254356 7.00045254 7 9 C5 10 5 10 3.15234375 9.51171875 C2.42144531 9.23972656 1.69054687 8.96773437 0.9375 8.6875 C-3.05783547 7.26521229 -6.98579676 6.29892653 -11.15234375 5.52734375 C-13 5 -13 5 -15 3 C-12.52076199 2.97314905 -10.0418116 2.95323453 -7.5625 2.9375 C-6.85544922 2.92912109 -6.14839844 2.92074219 -5.41992188 2.91210938 C-3.61306441 2.90346412 -1.80612397 2.94779989 0 3 C0.33 3.33 0.66 3.66 1 4 C0.67 2.68 0.34 1.36 0 0 Z " fill="#C9CEE9" transform="translate(398,214)"/><path d="M0 0 C1.45945288 0.08708669 2.91765868 0.19526907 4.375 0.3125 C5.59316406 0.39951172 5.59316406 0.39951172 6.8359375 0.48828125 C9 1 9 1 11 4 C10.360625 4.28875 9.72125 4.5775 9.0625 4.875 C6.84793921 5.82823451 6.84793921 5.82823451 6 8 C3.6859378 8.73075648 1.35171131 9.40138258 -1 10 C-1.66 9.34 -2.32 8.68 -3 8 C-2.34 8 -1.68 8 -1 8 C-1.020625 7.05125 -1.04125 6.1025 -1.0625 5.125 C-1 2 -1 2 0 0 Z " fill="#BCB0BE" transform="translate(385,110)"/><path d="M0 0 C2.475 0.99 2.475 0.99 5 2 C5 1.34 5 0.68 5 0 C7.97 0 10.94 0 14 0 C14 2.97 14 5.94 14 9 C15.32 9.33 16.64 9.66 18 10 C16.35 10 14.7 10 13 10 C13 7.03 13 4.06 13 1 C10.69 1 8.38 1 6 1 C6 3.97 6 6.94 6 10 C4.02 10 2.04 10 0 10 C0 6.7 0 3.4 0 0 Z " fill="#EDEDED" transform="translate(358,257)"/><path d="M0 0 C1.15837626 4.05431692 0.83691257 6.21812119 -1 10 C-2.98 10 -4.96 10 -7 10 C-7 7.03 -7 4.06 -7 1 C-4.53721199 -0.231394 -2.7204945 -0.07159196 0 0 Z " fill="#E0AC61" transform="translate(334,159)"/><path d="M0 0 C2.64 0.66 5.28 1.32 8 2 C8 2.33 8 2.66 8 3 C6.02 3 4.04 3 2 3 C2 4.32 2 5.64 2 7 C2.7425 7.12375 3.485 7.2475 4.25 7.375 C6.85244639 7.96646509 8.63392305 8.81696152 11 10 C13.33010909 10.67784992 15.66359824 11.34416793 18 12 C19.67632417 12.64199649 21.34750513 13.29894157 23 14 C23 14.66 23 15.32 23 16 C22.34 16 21.68 16 21 16 C20.67 16.66 20.34 17.32 20 18 C19.67 17.01 19.34 16.02 19 15 C15.92689072 13.58758455 15.92689072 13.58758455 12.25 12.4375 C8.1190781 11.05044359 4.02698266 9.66766267 0 8 C0 5.36 0 2.72 0 0 Z " fill="#F4E5AA" transform="translate(286,105)"/><path d="M0 0 C2.64 0 5.28 0 8 0 C7.625 2.9375 7.625 2.9375 7 6 C6.01 6.495 6.01 6.495 5 7 C4.67 7.99 4.34 8.98 4 10 C2.68 10 1.36 10 0 10 C0 6.7 0 3.4 0 0 Z " fill="#DCAC6B" transform="translate(339,134)"/><path d="M0 0 C0.99 0.495 0.99 0.495 2 1 C2.33333333 3.33333333 2.66666667 5.66666667 3 8 C3.66 8.33 4.32 8.66 5 9 C5 9.99 5 10.98 5 12 C5.66 12 6.32 12 7 12 C6.01 15.63 5.02 19.26 4 23 C1.69682583 19.54523874 1.34724122 16.63517956 0.875 12.625 C0.70742188 11.31789062 0.53984375 10.01078125 0.3671875 8.6640625 C0.07350376 5.73347366 -0.07942849 2.93885395 0 0 Z M3 12 C3.33 12.66 3.66 13.32 4 14 C4.33 13.34 4.66 12.68 5 12 C4.34 12 3.68 12 3 12 Z " fill="#F8CB44" transform="translate(305,131)"/><path d="M0 0 C4.70238725 0.46101836 8.23262357 1.03176403 12 4 C12 4.99 12 5.98 12 7 C12.66 7.33 13.32 7.66 14 8 C8.04680699 8.55811184 2.8643526 6.24290174 -2 3 C-0.68 2.67 0.64 2.34 2 2 C1.34 1.34 0.68 0.68 0 0 Z " fill="#F9CA43" transform="translate(308,113)"/><path d="M0 0 C1.65 0 3.3 0 5 0 C5 1.65 5 3.3 5 5 C4.34 5 3.68 5 3 5 C3.33 8.63 3.66 12.26 4 16 C3.01 15.67 2.02 15.34 1 15 C-0.44207941 12.11584117 -0.09394887 9.58278472 -0.0625 6.375 C-0.05347656 5.18648437 -0.04445313 3.99796875 -0.03515625 2.7734375 C-0.02355469 1.85820312 -0.01195312 0.94296875 0 0 Z " fill="#EFF0EF" transform="translate(379,250)"/><path d="M0 0 C0.33 0 0.66 0 1 0 C1.04944073 6.19302201 1.08573905 12.38592909 1.10986328 18.57910156 C1.11992034 20.68589275 1.13356768 22.79266999 1.15087891 24.89941406 C1.17514 27.92776941 1.18648608 30.95594019 1.1953125 33.984375 C1.20563507 34.92617615 1.21595764 35.86797729 1.22659302 36.83831787 C1.22674408 37.71892883 1.22689514 38.59953979 1.22705078 39.50683594 C1.231492 40.27960876 1.23593323 41.05238159 1.24050903 41.84857178 C0.96961352 44.27181653 0.20548093 45.89773202 -1 48 C-1.33 48 -1.66 48 -2 48 C-2.042721 46.33388095 -2.04063832 44.66617115 -2 43 C-1.505 42.505 -1.505 42.505 -1 42 C-0.83958807 38.89914779 -0.74036598 35.81812421 -0.68359375 32.71484375 C-0.6524221 31.31861534 -0.6524221 31.31861534 -0.62062073 29.8941803 C-0.55502069 26.90869818 -0.49619198 23.92312516 -0.4375 20.9375 C-0.3943247 18.91861024 -0.35071075 16.8997298 -0.30664062 14.88085938 C-0.19932871 9.92066703 -0.09809112 4.96038291 0 0 Z " fill="#E2C172" transform="translate(306,144)"/><path d="M0 0 C0.66 0.33 1.32 0.66 2 1 C1.34 1.61875 0.68 2.2375 0 2.875 C-2.2284549 4.75637427 -2.2284549 4.75637427 -2 7 C1.465 6.505 1.465 6.505 5 6 C5 5.34 5 4.68 5 4 C10.94 3.505 10.94 3.505 17 3 C14.62053067 5.37946933 13.10741332 5.67163781 9.875 6.5 C8.40740234 6.88091797 8.40740234 6.88091797 6.91015625 7.26953125 C5.94980469 7.51058594 4.98945313 7.75164062 4 8 C3.17371094 8.21011719 2.34742188 8.42023438 1.49609375 8.63671875 C-0.33413105 9.09836758 -2.16679162 9.55034511 -4 10 C-4 7.36 -4 4.72 -4 2 C-2.125 0.9375 -2.125 0.9375 0 0 Z " fill="#E0CDAD" transform="translate(290,214)"/><path d="M0 0 C5.07109342 -0.37105562 8.52377467 0.58972482 13 3 C14.203125 5.109375 14.203125 5.109375 15 7 C13.39504433 6.88557539 11.79101881 6.75805306 10.1875 6.625 C9.29417969 6.55539063 8.40085937 6.48578125 7.48046875 6.4140625 C5 6 5 6 2 4 C2.33 3.34 2.66 2.68 3 2 C3.66 2.33 4.32 2.66 5 3 C5 2.34 5 1.68 5 1 C3.35 1 1.7 1 0 1 C0 0.67 0 0.34 0 0 Z " fill="#99A2D3" transform="translate(386,212)"/><path d="M0 0 C1.65 0 3.3 0 5 0 C5 2.64 5 5.28 5 8 C2.36 8 -0.28 8 -3 8 C-1.125 2.25 -1.125 2.25 0 0 Z " fill="#B8A6AA" transform="translate(379,112)"/><path d="M0 0 C0.78375 0.00451172 1.5675 0.00902344 2.375 0.01367188 C4.29170014 0.02535907 6.20836048 0.04329092 8.125 0.0625 C7.135 0.3925 6.145 0.7225 5.125 1.0625 C4.795 2.0525 4.465 3.0425 4.125 4.0625 C3.34125 3.876875 2.5575 3.69125 1.75 3.5 C-0.84589775 2.80287734 -0.84589775 2.80287734 -2.875 4.0625 C-2.875 3.4025 -2.875 2.7425 -2.875 2.0625 C-7.825 2.3925 -12.775 2.7225 -17.875 3.0625 C-12.4144346 -0.57787693 -6.34392333 -0.06989068 0 0 Z " fill="#CFB6A4" transform="translate(330.875,203.9375)"/><path d="M0 0 C5.09832122 -0.37649141 8.82625254 0.89181224 13.375 3 C14.01566406 3.28617188 14.65632813 3.57234375 15.31640625 3.8671875 C16.88207163 4.5682317 18.44169156 5.28275118 20 6 C16.34427494 7.29180669 13.7184204 6.72816102 10 5.8125 C8.96875 5.57144531 7.9375 5.33039063 6.875 5.08203125 C3.72346292 3.89592287 2.17744193 2.5281357 0 0 Z " fill="#CCD0E6" transform="translate(378,207)"/><path d="M0 0 C2.475 0.99 2.475 0.99 5 2 C5 5.3 5 8.6 5 12 C4.01 12.33 3.02 12.66 2 13 C2 10.03 2 7.06 2 4 C0.02 4.33 -1.96 4.66 -4 5 C-3 3 -3 3 0 1 C0 0.67 0 0.34 0 0 Z " fill="#E0DEE3" transform="translate(395,112)"/><path d="M0 0 C0.33 0 0.66 0 1 0 C1.33 1.98 1.66 3.96 2 6 C2.94875 5.95875 3.8975 5.9175 4.875 5.875 C8 6 8 6 10 8 C9.01 9.485 9.01 9.485 8 11 C7.60612212 13.32387947 7.26513915 15.65793749 7 18 C6.67 18 6.34 18 6 18 C6 15.69 6 13.38 6 11 C5.01 11 4.02 11 3 11 C3 10.01 3 9.02 3 8 C2.01 8 1.02 8 0 8 C0 5.36 0 2.72 0 0 Z " fill="#EDEDED" transform="translate(402,244)"/><path d="M0 0 C0 1.65 0 3.3 0 5 C-2.31 5 -4.62 5 -7 5 C-7.33 5.66 -7.66 6.32 -8 7 C-8.66666667 5 -9.33333333 3 -10 1 C-3.71428571 -1.42857143 -3.71428571 -1.42857143 0 0 Z " fill="#F0F0F0" transform="translate(324,250)"/><path d="M0 0 C7.26 0.99 14.52 1.98 22 3 C20 5 20 5 17.7578125 5.265625 C16.88898438 5.26046875 16.02015625 5.2553125 15.125 5.25 C14.26132812 5.25515625 13.39765625 5.2603125 12.5078125 5.265625 C9.86375113 4.98556866 8.31236522 4.25692881 6 3 C4.00889599 2.61709538 2.00899487 2.27395385 0 2 C0 1.34 0 0.68 0 0 Z " fill="#ECDAA0" transform="translate(305,110)"/><path d="M0 0 C1.2065625 0.0309375 1.2065625 0.0309375 2.4375 0.0625 C1.6875 5.8125 1.6875 5.8125 -0.5625 8.0625 C-1.2225 7.4025 -1.8825 6.7425 -2.5625 6.0625 C-3.2225 6.7225 -3.8825 7.3825 -4.5625 8.0625 C-3.54737544 0.08652135 -3.54737544 0.08652135 0 0 Z " fill="#F1F1F1" transform="translate(354.5625,249.9375)"/><path d="M0 0 C1.65 0 3.3 0 5 0 C5 3.63 5 7.26 5 11 C3.68 10.01 2.36 9.02 1 8 C1.20625 7.4225 1.4125 6.845 1.625 6.25 C2.08661261 3.48032433 1.42944945 2.35438733 0 0 Z " fill="#F9CC47" transform="translate(312,129)"/><path d="M0 0 C0.33 0 0.66 0 1 0 C1.12375 0.94875 1.2475 1.8975 1.375 2.875 C1.71687177 6.08667191 1.71687177 6.08667191 4 8 C3.01 9.485 3.01 9.485 2 11 C-1.125 11.1875 -1.125 11.1875 -4 11 C-3.01 10.67 -2.02 10.34 -1 10 C-1 9.34 -1 8.68 -1 8 C-1.66 7.67 -2.32 7.34 -3 7 C-1.125 2.25 -1.125 2.25 0 0 Z " fill="#EDEDED" transform="translate(402,256)"/><path d="M0 0 C1.74627478 2.61941217 2.38722388 4.03824877 3 7 C5.64 6.67 8.28 6.34 11 6 C8.49484216 8.50515784 6.38931835 9.05099086 3 10 C1.68 10 0.36 10 -1 10 C-0.67 6.7 -0.34 3.4 0 0 Z " fill="#E4D2B9" transform="translate(303,195)"/><path d="M0 0 C0.33 0 0.66 0 1 0 C1.33 3.63 1.66 7.26 2 11 C0 12 0 12 -2.3828125 11.22265625 C-3.74019531 10.64837891 -3.74019531 10.64837891 -5.125 10.0625 C-6.03507812 9.68222656 -6.94515625 9.30195313 -7.8828125 8.91015625 C-8.58148438 8.60980469 -9.28015625 8.30945313 -10 8 C-6.06204091 6.77580837 -3.83887763 7.51679728 0 9 C0 6.03 0 3.06 0 0 Z " fill="#D5D6E7" transform="translate(386,194)"/><path d="M0 0 C2.64 0.66 5.28 1.32 8 2 C8 2.33 8 2.66 8 3 C6.02 3 4.04 3 2 3 C2 4.32 2 5.64 2 7 C3.65 7.33 5.3 7.66 7 8 C3.98968256 8.93423645 3.13349732 9.04449911 0 8 C0 5.36 0 2.72 0 0 Z " fill="#E8DE9F" transform="translate(286,105)"/><path d="M0 0 C0.99 0.33 1.98 0.66 3 1 C2.875 2.875 2.875 2.875 2 5 C-1.0625 6.25 -1.0625 6.25 -4 7 C-3.67 6.01 -3.34 5.02 -3 4 C-3.99 3.01 -4.98 2.02 -6 1 C-3.03 1.495 -3.03 1.495 0 2 C0 1.34 0 0.68 0 0 Z " fill="#C2A595" transform="translate(373,114)"/><path d="M0 0 C2.31 0 4.62 0 7 0 C7 0.99 7 1.98 7 3 C3.94152152 3.54372951 1.11227195 4 -2 4 C-2 3.34 -2 2.68 -2 2 C-1.34 2 -0.68 2 0 2 C0 1.34 0 0.68 0 0 Z " fill="#AA9DB5" transform="translate(388,112)"/><path d="M0 0 C0.99 0 1.98 0 3 0 C3 2.97 3 5.94 3 9 C2.34 9 1.68 9 1 9 C0.67 9.66 0.34 10.32 0 11 C0 7.37 0 3.74 0 0 Z " fill="#E5E3E5" transform="translate(397,96)"/><path d="M0 0 C-0.33 1.32 -0.66 2.64 -1 4 C-2.32 3.67 -3.64 3.34 -5 3 C-5 2.34 -5 1.68 -5 1 C-5.99 1.495 -5.99 1.495 -7 2 C-9.6723621 2.13415472 -12.32250488 2.04318541 -15 2 C-15 1.67 -15 1.34 -15 1 C-9.94997778 -0.03590199 -5.12583611 -0.10251672 0 0 Z " fill="#CEA987" transform="translate(326,206)"/><path d="M0 0 C0.33 0 0.66 0 1 0 C1.25 3.3125 1.25 3.3125 1 7 C-0.75 9 -0.75 9 -3 10 C-5.25 9.6875 -5.25 9.6875 -7 9 C-5.66650392 7.66650392 -4.31199686 6.35369402 -2.9375 5.0625 C-0.78828832 3.06329525 -0.78828832 3.06329525 0 0 Z " fill="#F2F2F2" transform="translate(412,258)"/><path d="M0 0 C1.9375 0.3125 1.9375 0.3125 4 1 C4.33 1.99 4.66 2.98 5 4 C4.34 4 3.68 4 3 4 C2.67 5.65 2.34 7.3 2 9 C0.35 9.33 -1.3 9.66 -3 10 C-2.525625 9.54625 -2.05125 9.0925 -1.5625 8.625 C0.09027808 7.06741796 0.09027808 7.06741796 1 5 C0.72057545 3.32345271 0.39171753 1.65391846 0 0 Z " fill="#EEEEEE" transform="translate(344,261)"/><path d="M0 0 C2.97 0.99 5.94 1.98 9 3 C9 3.33 9 3.66 9 4 C5.37 4 1.74 4 -2 4 C-2 3.34 -2 2.68 -2 2 C-1.34 2 -0.68 2 0 2 C0 1.34 0 0.68 0 0 Z " fill="#C6C9E4" transform="translate(373,213)"/><path d="M0 0 C1.98 0.66 3.96 1.32 6 2 C6 3.98 6 5.96 6 8 C5.34 8 4.68 8 4 8 C0 1.125 0 1.125 0 0 Z " fill="#B2BADE" transform="translate(398,214)"/><path d="M0 0 C2.475 0.495 2.475 0.495 5 1 C4.34 2.98 3.68 4.96 3 7 C2.01 6.67 1.02 6.34 0 6 C0 4.02 0 2.04 0 0 Z " fill="#B2A4B8" transform="translate(371,152)"/><path d="M0 0 C0.99 0 1.98 0 3 0 C3 1.98 3 3.96 3 6 C1.02 6.99 1.02 6.99 -1 8 C-0.67 5.36 -0.34 2.72 0 0 Z " fill="#D5AA75" transform="translate(347,134)"/><path d="M0 0 C10.55808656 -0.18451025 10.55808656 -0.18451025 15 1 C14.34 1.66 13.68 2.32 13 3 C8.58782801 2.63834656 4.32556868 1.94621815 0 1 C0 0.67 0 0.34 0 0 Z " fill="#E4BF6E" transform="translate(320,122)"/><path d="M0 0 C1.67542976 0.28604898 3.34385343 0.61781233 5 1 C4.34 2.32 3.68 3.64 3 5 C2.67 4.67 2.34 4.34 2 4 C1.34 4.66 0.68 5.32 0 6 C-0.38218767 4.34385343 -0.71395102 2.67542976 -1 1 C-0.67 0.67 -0.34 0.34 0 0 Z " fill="#F9F9F9" transform="translate(342,252)"/><path d="M0 0 C2.64 0.33 5.28 0.66 8 1 C8 1.99 8 2.98 8 4 C5.69 3.67 3.38 3.34 1 3 C0.67 2.01 0.34 1.02 0 0 Z " fill="#969DE0" transform="translate(388,214)"/><path d="M0 0 C1.98 0 3.96 0 6 0 C5.67 0.99 5.34 1.98 5 3 C2.69 3.33 0.38 3.66 -2 4 C-1.34 2.68 -0.68 1.36 0 0 Z " fill="#E0A25C" transform="translate(296,214)"/><path d="M0 0 C-0.33 0.99 -0.66 1.98 -1 3 C-1.598125 2.814375 -2.19625 2.62875 -2.8125 2.4375 C-5.16408762 1.77906313 -5.16408762 1.77906313 -8 3 C-10.00875442 2.72428861 -12.01178687 2.39764263 -14 2 C-14 1.67 -14 1.34 -14 1 C-9.27685687 0.22887459 -4.78478822 -0.09764874 0 0 Z " fill="#C2B0A5" transform="translate(379,113)"/><path d="M0 0 C-4.48074195 3.36055646 -7.60550707 3.27429625 -13 3 C-4.20833333 -1.55864198 -4.20833333 -1.55864198 0 0 Z " fill="#D0AE81" transform="translate(310,210)"/><path d="M0 0 C3.375 -0.125 3.375 -0.125 7 0 C7.66 0.66 8.32 1.32 9 2 C7.35 2.66 5.7 3.32 4 4 C4 3.34 4 2.68 4 2 C2.68 2.33 1.36 2.66 0 3 C0 2.01 0 1.02 0 0 Z " fill="#B3A4B5" transform="translate(352,204)"/><path d="M0 0 C0 0.66 0 1.32 0 2 C-2.31 2.66 -4.62 3.32 -7 4 C-7.66 3.34 -8.32 2.68 -9 2 C-8.34 2 -7.68 2 -7 2 C-7 1.34 -7 0.68 -7 0 C-3.98968256 -0.93423645 -3.13349732 -1.04449911 0 0 Z " fill="#C7BEC8" transform="translate(391,116)"/><path d="M0 0 C2.31 0 4.62 0 7 0 C7 0.66 7 1.32 7 2 C8.98 2 10.96 2 13 2 C13 2.33 13 2.66 13 3 C11.39667209 3.08121924 9.79215974 3.13929134 8.1875 3.1875 C7.29417969 3.22230469 6.40085937 3.25710937 5.48046875 3.29296875 C2.58352485 2.95081002 1.77444972 2.24606427 0 0 Z " fill="#F0D469" transform="translate(298,110)"/><path d="M0 0 C0.33 0 0.66 0 1 0 C1.05429959 1.74965358 1.09292823 3.49979787 1.125 5.25 C1.14820313 6.22453125 1.17140625 7.1990625 1.1953125 8.203125 C0.99862781 11.0196498 0.44568916 12.60949036 -1 15 C-1.33 15 -1.66 15 -2 15 C-2.042721 13.33388095 -2.04063832 11.66617115 -2 10 C-1.67 9.67 -1.34 9.34 -1 9 C-0.76807135 7.48530552 -0.58784762 5.96245438 -0.4375 4.4375 C-0.35371094 3.61121094 -0.26992188 2.78492188 -0.18359375 1.93359375 C-0.12300781 1.29550781 -0.06242187 0.65742188 0 0 Z " fill="#E1C18C" transform="translate(306,177)"/><path d="M0 0 C0 1.98 0 3.96 0 6 C-0.99 5.34 -1.98 4.68 -3 4 C-4.65549531 3.61500109 -6.3222433 3.27206865 -8 3 C-2 0 -2 0 0 0 Z " fill="#F0F0F0" transform="translate(294,261)"/><path d="M0 0 C0.33 0 0.66 0 1 0 C1.28571429 8.57142857 1.28571429 8.57142857 -1 12 C-1.66 11.67 -2.32 11.34 -3 11 C-2.67 9.68 -2.34 8.36 -2 7 C-1.34 7 -0.68 7 0 7 C0 4.69 0 2.38 0 0 Z " fill="#E2B36F" transform="translate(318,176)"/><path d="M0 0 C2.31 0.33 4.62 0.66 7 1 C6.01 1.66 5.02 2.32 4 3 C4.99 3.66 5.98 4.32 7 5 C4.625 4.75 4.625 4.75 2 4 C0.6875 1.9375 0.6875 1.9375 0 0 Z " fill="#F9D94D" transform="translate(294,111)"/><path d="M0 0 C0.33 0 0.66 0 1 0 C1 1.98 1 3.96 1 6 C-0.32 6 -1.64 6 -3 6 C-3 5.01 -3 4.02 -3 3 C-2.34 3 -1.68 3 -1 3 C-0.67 2.01 -0.34 1.02 0 0 Z " fill="#E2A864" transform="translate(315,191)"/><path d="M0 0 C3.3125 -0.1875 3.3125 -0.1875 7 0 C7.99 0.99 8.98 1.98 10 3 C6.7 2.67 3.4 2.34 0 2 C0 1.34 0 0.68 0 0 Z " fill="#EBC668" transform="translate(309,119)"/><path d="M0 0 C0.99 0.99 1.98 1.98 3 3 C2.34 3 1.68 3 1 3 C1 5.97 1 8.94 1 12 C0.67 12 0.34 12 0 12 C-0.19401633 10.18818595 -0.38004375 8.37551468 -0.5625 6.5625 C-0.66691406 5.55316406 -0.77132813 4.54382813 -0.87890625 3.50390625 C-0.91886719 2.67761719 -0.95882813 1.85132812 -1 1 C-0.67 0.67 -0.34 0.34 0 0 Z " fill="#EEE8C6" transform="translate(303,122)"/><path d="" fill="#FFFFFF" transform="translate(0,0)"/></svg>