<?xml version="1.0" encoding="UTF-8"?>
<svg version="1.1" xmlns="http://www.w3.org/2000/svg" width="691" height="361">
<path d="M0 0 C0.99 0.33 1.98 0.66 3 1 C3.02741912 2.5415636 3.04658248 4.08327474 3.0625 5.625 C3.07410156 6.48351562 3.08570313 7.34203125 3.09765625 8.2265625 C3 11 3 11 2.50439453 13.48828125 C1.81029598 18.32076603 1.83739045 23.08474851 1.83203125 27.9609375 C1.82870285 29.02430328 1.82537445 30.08766907 1.82194519 31.18325806 C1.81689043 33.43417938 1.81453642 35.68510817 1.81469727 37.93603516 C1.81252966 41.3285818 1.79441069 44.72079289 1.77539062 48.11328125 C1.74580546 59.90768211 2.06814535 71.34757815 4 83 C2.515 83.495 2.515 83.495 1 84 C1 84.66 1 85.32 1 86 C1.51304687 86.10441406 2.02609375 86.20882812 2.5546875 86.31640625 C5.86519167 87.24186668 8.97339764 88.58263589 12.125 89.9375 C12.75792969 90.20240234 13.39085937 90.46730469 14.04296875 90.74023438 C16.80187241 91.92052968 18.85821149 92.85821149 21 95 C20.625 98.625 20.625 98.625 20 102 C15.26769718 101.08407042 10.55092283 100.13660496 5.85546875 99.046875 C5.1082959 98.87510742 4.36112305 98.70333984 3.59130859 98.52636719 C2.13066688 98.18898305 0.67122051 97.84635546 -0.78662109 97.49707031 C-13.79026625 94.50819906 -26.59677883 93.65290658 -39.875 93.75 C-40.99219421 93.75415421 -40.99219421 93.75415421 -42.13195801 93.75839233 C-60.16780693 93.83701311 -78.15772294 95.08366343 -95.23046875 101.44921875 C-97 102 -97 102 -100 102 C-100 99.36 -100 96.72 -100 94 C-98.1693727 93.05722694 -96.33533807 92.12106924 -94.5 91.1875 C-93.4790625 90.66542969 -92.458125 90.14335937 -91.40625 89.60546875 C-84.20825705 86.21283675 -77.00919284 84.10928987 -69.25 82.375 C-68.27208496 82.15626221 -67.29416992 81.93752441 -66.28662109 81.7121582 C-59.51167385 80.23961311 -52.94561912 79.14098009 -46 79 C-44.81019531 78.94972656 -43.62039063 78.89945312 -42.39453125 78.84765625 C-32.33238592 78.59933085 -22.82578822 79.87981934 -12.94433594 81.72460938 C-10.66721174 82.09349179 -10.66721174 82.09349179 -7 82 C-8.134375 81.5875 -9.26875 81.175 -10.4375 80.75 C-14 79 -14 79 -14.70507812 77.1796875 C-15.0133823 74.90109509 -15.19329701 72.6730059 -15.28125 70.375 C-15.31863281 69.50359375 -15.35601562 68.6321875 -15.39453125 67.734375 C-15.46484375 65.91145833 -15.53515625 64.08854167 -15.60546875 62.265625 C-15.66154297 60.95851563 -15.66154297 60.95851563 -15.71875 59.625 C-15.74904297 58.83351562 -15.77933594 58.04203125 -15.81054688 57.2265625 C-15.96793175 54.67660459 -15.96793175 54.67660459 -17 51 C-21.95 51 -26.9 51 -32 51 C-32 59.25 -32 67.5 -32 76 C-34.84838121 77.4241906 -37.32787908 77.16995508 -40.5 77.1875 C-41.6653125 77.20167969 -42.830625 77.21585937 -44.03125 77.23046875 C-47 77 -47 77 -49 75 C-49.22705078 72.56982422 -49.22705078 72.56982422 -49.1953125 69.5546875 C-49.18886719 68.47832031 -49.18242187 67.40195313 -49.17578125 66.29296875 C-49.15902344 65.16503906 -49.14226562 64.03710938 -49.125 62.875 C-49.11597656 61.73933594 -49.10695313 60.60367188 -49.09765625 59.43359375 C-49.07403098 56.62218701 -49.04109013 53.81119702 -49 51 C-49.78246094 51.01160156 -50.56492187 51.02320313 -51.37109375 51.03515625 C-52.38300781 51.04417969 -53.39492188 51.05320313 -54.4375 51.0625 C-55.44683594 51.07410156 -56.45617187 51.08570313 -57.49609375 51.09765625 C-60 51 -60 51 -61 50 C-61.07319621 47.30345146 -61.09242537 44.63308542 -61.0625 41.9375 C-61.05798828 41.17888672 -61.05347656 40.42027344 -61.04882812 39.63867188 C-61.0370068 37.75908129 -61.01907078 35.87953101 -61 34 C-55.06 33.505 -55.06 33.505 -49 33 C-49.02320313 31.29070312 -49.04640625 29.58140625 -49.0703125 27.8203125 C-49.08906684 25.58854602 -49.1072674 23.35677483 -49.125 21.125 C-49.14175781 19.99707031 -49.15851563 18.86914062 -49.17578125 17.70703125 C-49.18544922 16.09248047 -49.18544922 16.09248047 -49.1953125 14.4453125 C-49.21102295 12.95281982 -49.21102295 12.95281982 -49.22705078 11.43017578 C-49 9 -49 9 -47 7 C-43.77734375 6.76953125 -43.77734375 6.76953125 -39.9375 6.8125 C-38.03291016 6.82216797 -38.03291016 6.82216797 -36.08984375 6.83203125 C-33 7 -33 7 -32 8 C-31.84213692 9.85174706 -31.74892644 11.7090911 -31.68359375 13.56640625 C-31.64169922 14.69111328 -31.59980469 15.81582031 -31.55664062 16.97460938 C-31.51732422 18.15861328 -31.47800781 19.34261719 -31.4375 20.5625 C-31.39431641 21.75037109 -31.35113281 22.93824219 -31.30664062 24.16210938 C-31.20016547 27.10792197 -31.09954319 30.05394502 -31 33 C-26.05 33 -21.1 33 -16 33 C-15.92652344 30.34517578 -15.92652344 30.34517578 -15.8515625 27.63671875 C-15.77653668 25.32029641 -15.70098877 23.00389095 -15.625 20.6875 C-15.5940625 19.52025391 -15.563125 18.35300781 -15.53125 17.15039062 C-15.49257813 16.03212891 -15.45390625 14.91386719 -15.4140625 13.76171875 C-15.36693115 12.2142395 -15.36693115 12.2142395 -15.31884766 10.63549805 C-15 8 -15 8 -13 5 C-10.21484375 3.8671875 -10.21484375 3.8671875 -6.9375 2.875 C-3.17461158 1.97279457 -3.17461158 1.97279457 0 0 Z " fill="#BBA6A9" transform="translate(385,122)"/>
<path d="M0 0 C0.99 0 1.98 0 3 0 C4.28317892 3.84953676 4.06643637 6.94738135 4 11 C8.29 11.99 12.58 12.98 17 14 C17 14.99 17 15.98 17 17 C12.71 17.66 8.42 18.32 4 19 C4.020625 20.0725 4.04125 21.145 4.0625 22.25 C4.0142016 25.14790424 3.86844115 27.28612141 3 30 C2.01 30 1.02 30 0 30 C0 27.03 0 24.06 0 21 C-0.62261719 21.30292969 -1.24523437 21.60585937 -1.88671875 21.91796875 C-11.86888729 26.4426616 -22.32047293 28.71500427 -33 31 C-33.80896729 31.18175781 -34.61793457 31.36351563 -35.45141602 31.55078125 C-49.6363805 34.05105279 -73.79223795 34.60388103 -87 28 C-87 28.66 -87 29.32 -87 30 C-86.04287109 30.09087891 -86.04287109 30.09087891 -85.06640625 30.18359375 C-84.24011719 30.26738281 -83.41382813 30.35117188 -82.5625 30.4375 C-81.32693359 30.55931641 -81.32693359 30.55931641 -80.06640625 30.68359375 C-78 31 -78 31 -77 32 C-75.63768523 38.71255095 -75.8559522 45.48532943 -75.8671875 52.30859375 C-75.86623077 53.58928238 -75.86527405 54.86997101 -75.86428833 56.18946838 C-75.86282 58.89170548 -75.86493764 61.59390936 -75.86962891 64.29614258 C-75.87531993 67.74002198 -75.87204566 71.18382332 -75.86605644 74.62769985 C-75.86154942 77.93800387 -75.86471641 81.24828752 -75.8671875 84.55859375 C-75.86516327 85.78589706 -75.86313904 87.01320038 -75.86105347 88.2776947 C-75.87739412 94.28084816 -76.07655212 100.06544891 -77 106 C-79.24732102 106.84124316 -81.49738785 107.67314832 -83.75 108.5 C-84.70132812 108.85771484 -84.70132812 108.85771484 -85.671875 109.22265625 C-89.03286607 110.44801758 -91.36871587 111 -95 111 C-96.05316923 107.84049231 -95.95796507 106.64343519 -95.44140625 103.44140625 C-92.20845366 81.85030281 -91.83486966 60.71180704 -95.02001953 39.08032227 C-95.79326433 33.73615236 -96.11631828 29.30066361 -95 24 C-95.94875 23.7525 -96.8975 23.505 -97.875 23.25 C-102.72687419 21.87513627 -107.34689714 19.92865028 -112 18 C-112 15.36 -112 12.72 -112 10 C-110 9 -110 9 -108.1875 9.48828125 C-107.1046875 9.89626953 -107.1046875 9.89626953 -106 10.3125 C-101.76354753 11.81376714 -97.58210291 12.77085757 -93.1640625 13.5703125 C-91 14 -91 14 -88 15 C-64.62490739 19.21921961 -32.60755072 20.78915613 -10 13 C-8.7625 12.835 -7.525 12.67 -6.25 12.5 C-2.92159951 12.31584196 -2.92159951 12.31584196 -1 10 C-0.53837573 7.56747339 -0.53837573 7.56747339 -0.375 4.875 C-0.30023438 3.96492188 -0.22546875 3.05484375 -0.1484375 2.1171875 C-0.07496094 1.06917969 -0.07496094 1.06917969 0 0 Z M1 14 C0.34 14.66 -0.32 15.32 -1 16 C-0.01 16.33 0.98 16.66 2 17 C2 16.01 2 15.02 2 14 C1.67 14 1.34 14 1 14 Z M-92 27 C-90.515 27.99 -90.515 27.99 -89 29 C-88.34 28.34 -87.68 27.68 -87 27 C-88.65 27 -90.3 27 -92 27 Z " fill="#F1BD55" transform="translate(397,95)"/>
<path d="M0 0 C0 2.97 0 5.94 0 9 C0.474375 8.505 0.94875 8.01 1.4375 7.5 C5.19305689 5.30162523 8.75979016 4.996354 13 6 C15.5625 9 15.5625 9 17 12 C17.99 10.02 18.98 8.04 20 6 C21.65 6 23.3 6 25 6 C25 4.35 25 2.7 25 1 C27.33294775 0.95758277 29.66702567 0.95907063 32 1 C33 2 33 2 33.09765625 3.84765625 C33.06510417 5.8984375 33.03255208 7.94921875 33 10 C34.65 10 36.3 10 38 10 C37.979375 8.700625 37.95875 7.40125 37.9375 6.0625 C37.91600546 4.70834367 37.92851801 3.35243917 38 2 C39 1 39 1 42 0.875 C45 1 45 1 46 2 C46.09902107 3.53781591 46.13079567 5.08009444 46.1328125 6.62109375 C46.13410156 7.55630859 46.13539063 8.49152344 46.13671875 9.45507812 C46.13285156 10.43927734 46.12898438 11.42347656 46.125 12.4375 C46.12886719 13.41783203 46.13273437 14.39816406 46.13671875 15.40820312 C46.13542969 16.34470703 46.13414062 17.28121094 46.1328125 18.24609375 C46.13168457 19.10904053 46.13055664 19.9719873 46.12939453 20.86108398 C46 23 46 23 45 25 C43.02 24.67 41.04 24.34 39 24 C37.90341064 20.71023192 38.20046862 19.28696233 39 16 C37.35 16 35.7 16 34 16 C33.86722656 16.56589844 33.73445313 17.13179688 33.59765625 17.71484375 C33.42105469 18.44832031 33.24445313 19.18179687 33.0625 19.9375 C32.80146484 21.03384766 32.80146484 21.03384766 32.53515625 22.15234375 C32 24 32 24 31 25 C28.5 25.125 28.5 25.125 26 25 C24.41727399 23.41727399 24.65264253 21.61965997 24.4375 19.4375 C24.35371094 18.61121094 24.26992188 17.78492188 24.18359375 16.93359375 C24.12300781 16.29550781 24.06242187 15.65742188 24 15 C23.60167969 15.90363281 23.20335937 16.80726563 22.79296875 17.73828125 C22.26316406 18.91777344 21.73335938 20.09726562 21.1875 21.3125 C20.66542969 22.48425781 20.14335937 23.65601563 19.60546875 24.86328125 C17.33652055 29.2962871 17.33652055 29.2962871 15 31 C11.8125 31.1875 11.8125 31.1875 9 31 C8.67 29.35 8.34 27.7 8 26 C9.32 25.67 10.64 25.34 12 25 C11.27991594 20.39146203 9.68704061 16.32762591 8 12 C7.34 12.66 6.68 13.32 6 14 C6.26649053 16.66490525 6.95843778 17.94724795 8.625 20.0625 C9.07875 20.701875 9.5325 21.34125 10 22 C9.505 23.485 9.505 23.485 9 25 C4.44615385 25.36923077 4.44615385 25.36923077 2.1875 23.5 C1.795625 23.005 1.40375 22.51 1 22 C0.608125 22.515625 0.21625 23.03125 -0.1875 23.5625 C-0.785625 24.036875 -1.38375 24.51125 -2 25 C-4.5625 24.625 -4.5625 24.625 -7 24 C-7.99 24.495 -7.99 24.495 -9 25 C-15.33519553 25.35195531 -15.33519553 25.35195531 -18.125 23.875 C-19.053125 23.441875 -19.053125 23.441875 -20 23 C-20.70125 23.28875 -21.4025 23.5775 -22.125 23.875 C-26.30037034 25.50884057 -30.56005786 25.53436472 -35 25 C-35.66 24.34 -36.32 23.68 -37 23 C-37.66 23.66 -38.32 24.32 -39 25 C-41.75 25.265625 -41.75 25.265625 -45 25.25 C-46.60875 25.25773437 -46.60875 25.25773437 -48.25 25.265625 C-51 25 -51 25 -53 23 C-53.24291992 20.86108398 -53.24291992 20.86108398 -53.23046875 18.24609375 C-53.22853516 17.30958984 -53.22660156 16.37308594 -53.22460938 15.40820312 C-53.21236328 14.42787109 -53.20011719 13.44753906 -53.1875 12.4375 C-53.18685547 11.45330078 -53.18621094 10.46910156 -53.18554688 9.45507812 C-53.14017532 2.14017532 -53.14017532 2.14017532 -52 1 C-50.02 1 -48.04 1 -46 1 C-46 6.61 -46 12.22 -46 18 C-43.36 18 -40.72 18 -38 18 C-38 14.37 -38 10.74 -38 7 C-36.35 6.67 -34.7 6.34 -33 6 C-32 7 -32 7 -31.90234375 9.72265625 C-31.91394531 10.82480469 -31.92554688 11.92695313 -31.9375 13.0625 C-31.94652344 14.16722656 -31.95554687 15.27195312 -31.96484375 16.41015625 C-31.97644531 17.26480469 -31.98804688 18.11945313 -32 19 C-31.01 19 -30.02 19 -29 19 C-29.01160156 18.14535156 -29.02320313 17.29070312 -29.03515625 16.41015625 C-29.04417969 15.30542969 -29.05320312 14.20070313 -29.0625 13.0625 C-29.07410156 11.96035156 -29.08570313 10.85820312 -29.09765625 9.72265625 C-29 7 -29 7 -28 6 C-25.625 5.75 -25.625 5.75 -23 6 C-21.1875 7.5 -21.1875 7.5 -20 9 C-19.443125 8.525625 -18.88625 8.05125 -18.3125 7.5625 C-15.09297201 5.38714325 -12.52332916 4.71180259 -8.6875 5.4375 C-8.130625 5.623125 -7.57375 5.80875 -7 6 C-7 4.35 -7 2.7 -7 1 C-3.375 -1.125 -3.375 -1.125 0 0 Z M-14 12 C-14.69159401 13.84725052 -14.69159401 13.84725052 -15 16 C-14.01 17.485 -14.01 17.485 -13 19 C-11.02 18.67 -9.04 18.34 -7 18 C-7 16.35 -7 14.7 -7 13 C-9.31 12.67 -11.62 12.34 -14 12 Z " fill="#020202" transform="translate(332,243)"/>
<path d="M0 0 C0.99 0 1.98 0 3 0 C4.28317892 3.84953676 4.06643637 6.94738135 4 11 C8.29 11.99 12.58 12.98 17 14 C17 14.99 17 15.98 17 17 C12.71 17.66 8.42 18.32 4 19 C4.020625 20.0725 4.04125 21.145 4.0625 22.25 C4.0142016 25.14790424 3.86844115 27.28612141 3 30 C2.01 30 1.02 30 0 30 C0 27.03 0 24.06 0 21 C-0.62261719 21.30292969 -1.24523437 21.60585937 -1.88671875 21.91796875 C-11.86888729 26.4426616 -22.32047293 28.71500427 -33 31 C-33.80244141 31.18248291 -34.60488281 31.36496582 -35.43164062 31.55297852 C-40.42638737 32.42231134 -45.50604509 32.18465129 -50.5625 32.1875 C-52.23795898 32.20586914 -52.23795898 32.20586914 -53.94726562 32.22460938 C-61.49144601 32.23772969 -68.60388998 31.48056416 -76 30 C-76 29.67 -76 29.34 -76 29 C-70.72 29.33 -65.44 29.66 -60 30 C-60 29.34 -60 28.68 -60 28 C-61.6299379 26.3700621 -63.78264824 26.42235272 -66 26 C-66.99 25.67 -67.98 25.34 -69 25 C-69 24.34 -69 23.68 -69 23 C-69.99 23 -70.98 23 -72 23 C-72 21.68 -72 20.36 -72 19 C-75.3 18.34 -78.6 17.68 -82 17 C-82 16.67 -82 16.34 -82 16 C-81.33822754 16.07001221 -80.67645508 16.14002441 -79.99462891 16.2121582 C-70.78006709 17.09162398 -61.62205296 17.19826658 -52.375 17.1875 C-51.18194244 17.18759064 -51.18194244 17.18759064 -49.96478271 17.18768311 C-29.6837698 17.30407971 -29.6837698 17.30407971 -10 13 C-8.7625 12.835 -7.525 12.67 -6.25 12.5 C-2.92159951 12.31584196 -2.92159951 12.31584196 -1 10 C-0.53837573 7.56747339 -0.53837573 7.56747339 -0.375 4.875 C-0.30023438 3.96492188 -0.22546875 3.05484375 -0.1484375 2.1171875 C-0.07496094 1.06917969 -0.07496094 1.06917969 0 0 Z M1 14 C0.34 14.66 -0.32 15.32 -1 16 C-0.01 16.33 0.98 16.66 2 17 C2 16.01 2 15.02 2 14 C1.67 14 1.34 14 1 14 Z " fill="#DFB06B" transform="translate(397,95)"/>
<path d="M0 0 C0 0.66 0 1.32 0 2 C3.3 2 6.6 2 10 2 C10.99 3.98 10.99 3.98 12 6 C15.465 5.505 15.465 5.505 19 5 C16.50671516 8.4727896 15.20591344 10.21139123 11 11 C10.39373779 11.49363037 9.78747559 11.98726074 9.1628418 12.49584961 C6.66340101 14.23408809 5.40230726 14.39034408 2.39453125 14.44140625 C1.50185547 14.46638184 0.60917969 14.49135742 -0.31054688 14.51708984 C-1.73463867 14.53956787 -1.73463867 14.53956787 -3.1875 14.5625 C-20.11554272 15.08768058 -37.22561945 16.48182752 -53.23046875 22.44921875 C-55 23 -55 23 -58 23 C-58 20.36 -58 17.72 -58 15 C-56.1693727 14.05722694 -54.33533807 13.12106924 -52.5 12.1875 C-51.4790625 11.66542969 -50.458125 11.14335937 -49.40625 10.60546875 C-42.20781498 7.21262839 -35.00913174 5.1110706 -27.25 3.375 C-26.28078613 3.15626221 -25.31157227 2.93752441 -24.31298828 2.7121582 C-16.18169807 0.93237421 -8.32325353 0 0 0 Z " fill="#C5A694" transform="translate(343,201)"/>
<path d="M0 0 C0.33 0 0.66 0 1 0 C1.495 5.445 1.495 5.445 2 11 C1.01 11.33 0.02 11.66 -1 12 C-1 12.66 -1 13.32 -1 14 C-0.48695313 14.10441406 0.02609375 14.20882812 0.5546875 14.31640625 C3.86519167 15.24186668 6.97339764 16.58263589 10.125 17.9375 C10.75792969 18.20240234 11.39085937 18.46730469 12.04296875 18.74023438 C14.80187241 19.92052968 16.85821149 20.85821149 19 23 C18.625 26.625 18.625 26.625 18 30 C13.39965319 29.1096103 8.82777698 28.20412129 4.27734375 27.08203125 C-9.32992156 23.75307629 -23.07384029 22.34579232 -37 21 C-31.87085962 15.66738959 -31.87085962 15.66738959 -28 15 C-27.34 14.34 -26.68 13.68 -26 13 C-26.66 12.67 -27.32 12.34 -28 12 C-28.33 12.66 -28.66 13.32 -29 14 C-32 13 -32 13 -33.36328125 11.44921875 C-35.64924208 9.4251341 -37.18889659 9.6956713 -40.1875 9.8125 C-41.08855469 9.83957031 -41.98960937 9.86664063 -42.91796875 9.89453125 C-43.60503906 9.92933594 -44.29210937 9.96414062 -45 10 C-44.67 9.01 -44.34 8.02 -44 7 C-31.82709481 6.34397517 -19.88050404 8.52789512 -8 11 C-8 10.67 -8 10.34 -8 10 C-6.02 9.34 -4.04 8.68 -2 8 C-2.495 6.515 -2.495 6.515 -3 5 C-1.625 2.3125 -1.625 2.3125 0 0 Z " fill="#9FA6D9" transform="translate(387,194)"/>
<path d="M0 0 C0.60585938 0.19335938 1.21171875 0.38671875 1.8359375 0.5859375 C6.81665156 2.13379018 11.744916 3.42668824 16.8671875 4.3984375 C21.27441197 5.24471252 25.66841051 6.15078038 30.0625 7.0625 C30.92093506 7.2370874 31.77937012 7.4116748 32.66381836 7.59155273 C33.86856812 7.84207397 33.86856812 7.84207397 35.09765625 8.09765625 C35.82476807 8.24726807 36.55187988 8.39687988 37.30102539 8.55102539 C39 9 39 9 40 10 C41.68183948 10.23287008 43.3712416 10.41264166 45.0625 10.5625 C45.98160156 10.64628906 46.90070313 10.73007813 47.84765625 10.81640625 C48.55792969 10.87699219 49.26820313 10.93757813 50 11 C50 11.33 50 11.66 50 12 C46.37 12 42.74 12 39 12 C39 12.66 39 13.32 39 14 C39.99 14 40.98 14 42 14 C42 14.66 42 15.32 42 16 C43.0725 15.979375 44.145 15.95875 45.25 15.9375 C48.14790424 15.9857984 50.28612141 16.13155885 53 17 C53 17.66 53 18.32 53 19 C52.34 19 51.68 19 51 19 C51 19.66 51 20.32 51 21 C46.87471501 20.86160047 42.74985892 20.7130259 38.625 20.5625 C37.449375 20.52318359 36.27375 20.48386719 35.0625 20.44335938 C33.38027344 20.38051758 33.38027344 20.38051758 31.6640625 20.31640625 C30.62717285 20.27974854 29.5902832 20.24309082 28.52197266 20.20532227 C26 20 26 20 24 19 C24 19.66 24 20.32 24 21 C24.95712891 21.09087891 24.95712891 21.09087891 25.93359375 21.18359375 C26.75988281 21.26738281 27.58617187 21.35117188 28.4375 21.4375 C29.67306641 21.55931641 29.67306641 21.55931641 30.93359375 21.68359375 C33 22 33 22 34 23 C34.23363881 24.84891946 34.41303635 26.70488031 34.5625 28.5625 C34.64628906 29.57441406 34.73007812 30.58632812 34.81640625 31.62890625 C34.87699219 32.41136719 34.93757813 33.19382813 35 34 C32.5705484 30.3558226 32.83820425 28.28758728 33 24 C32.0925 24.04125 31.185 24.0825 30.25 24.125 C26.97821256 23.99916202 25.8200547 23.41002735 23 22 C19.83304044 21.83275263 19.83304044 21.83275263 17 22 C17 24.31 17 26.62 17 29 C16.67 29 16.34 29 16 29 C15.80467039 27.2300132 15.61901118 25.45895721 15.4375 23.6875 C15.33308594 22.70136719 15.22867187 21.71523437 15.12109375 20.69921875 C15 18 15 18 16 15 C14.576875 14.62875 14.576875 14.62875 13.125 14.25 C8.27312581 12.87513627 3.65310286 10.92865028 -1 9 C-1.09765625 2.84765625 -1.09765625 2.84765625 -1 1 C-0.67 0.67 -0.34 0.34 0 0 Z M19 18 C20.485 18.99 20.485 18.99 22 20 C22.66 19.34 23.32 18.68 24 18 C22.35 18 20.7 18 19 18 Z " fill="#FACF4E" transform="translate(286,104)"/>
<path d="M0 0 C0.99 0 1.98 0 3 0 C4.28317892 3.84953676 4.06643637 6.94738135 4 11 C8.29 11.99 12.58 12.98 17 14 C17 14.99 17 15.98 17 17 C12.71 17.66 8.42 18.32 4 19 C4.020625 20.0725 4.04125 21.145 4.0625 22.25 C4.0142016 25.14790424 3.86844115 27.28612141 3 30 C2.01 30 1.02 30 0 30 C0 27.03 0 24.06 0 21 C-0.66902344 21.31453125 -1.33804687 21.6290625 -2.02734375 21.953125 C-10.80372023 25.86420821 -19.62969233 28.01269541 -29 30 C-29 29.01 -29 28.02 -29 27 C-28.360625 26.71125 -27.72125 26.4225 -27.0625 26.125 C-24.84793921 25.17176549 -24.84793921 25.17176549 -24 23 C-25.65 23 -27.3 23 -29 23 C-29 20 -29 20 -27 18 C-25.68 18 -24.36 18 -23 18 C-23 17.34 -23 16.68 -23 16 C-17.11482545 14.6493042 -11.25054518 13.50219558 -5.28515625 12.5625 C-2.81960638 12.16467253 -2.81960638 12.16467253 -1 10 C-0.53837573 7.56747339 -0.53837573 7.56747339 -0.375 4.875 C-0.30023438 3.96492188 -0.22546875 3.05484375 -0.1484375 2.1171875 C-0.09945313 1.41851562 -0.05046875 0.71984375 0 0 Z M1 14 C0.34 14.66 -0.32 15.32 -1 16 C-0.01 16.33 0.98 16.66 2 17 C2 16.01 2 15.02 2 14 C1.67 14 1.34 14 1 14 Z " fill="#BEA6A0" transform="translate(397,95)"/>
<path d="M0 0 C1.98 0 3.96 0 6 0 C6 1.98 6 3.96 6 6 C7.60875 5.87625 7.60875 5.87625 9.25 5.75 C13 6 13 6 15.375 7.5625 C17.54707763 10.82061644 17.93260614 13.09115592 18 17 C16.48483372 21.01519063 15.5944747 22.60368353 12 25 C9.37109375 25.30078125 9.37109375 25.30078125 6.4375 25.3125 C5.46683594 25.32925781 4.49617188 25.34601563 3.49609375 25.36328125 C2.67238281 25.24339844 1.84867187 25.12351562 1 25 C-1.55271658 21.17092513 -1.25857606 18.05416088 -1.1875 13.625 C-1.18685547 12.86960938 -1.18621094 12.11421875 -1.18554688 11.3359375 C-1.15483499 7.43211533 -0.94897317 3.81107623 0 0 Z M6 14 C6.33 15.65 6.66 17.3 7 19 C7.99 18.67 8.98 18.34 10 18 C10 16.35 10 14.7 10 13 C8.63106761 12.94729537 8.63106761 12.94729537 6 14 Z " fill="#030304" transform="translate(397,243)"/>
<path d="M0 0 C1.0725 -0.01675781 2.145 -0.03351563 3.25 -0.05078125 C4.1575 0.06910156 5.065 0.18898437 6 0.3125 C8.20192224 3.61538336 8.23959968 4.58712727 8.1953125 8.41796875 C8.18886719 9.40087891 8.18242187 10.38378906 8.17578125 11.39648438 C8.15902344 12.42064453 8.14226562 13.44480469 8.125 14.5 C8.11597656 15.53576172 8.10695313 16.57152344 8.09765625 17.63867188 C8.0740786 20.19684685 8.0411703 22.75455748 8 25.3125 C5.25674767 21.19762151 5.92655232 17.50580313 6.16601562 12.76171875 C6.32542067 8.76771434 6.32542067 8.76771434 4.49609375 5.34375 C4.00238281 5.0034375 3.50867188 4.663125 3 4.3125 C-0.04928156 5.37780151 -0.04928156 5.37780151 -3 7.3125 C-4.37375255 12.63179768 -4.26822871 18.26871569 -4.34179688 23.7421875 C-4.42578125 25.828125 -4.42578125 25.828125 -5 29.3125 C-6.84375 30.71875 -6.84375 30.71875 -9 31.3125 C-12.21696962 32.46258886 -12.21696962 32.46258886 -15 34.3125 C-15.97474816 37.40211458 -15.97474816 37.40211458 -16 40.3125 C-14.906875 40.3125 -13.81375 40.3125 -12.6875 40.3125 C-10.45833333 40.3125 -8.22916667 40.3125 -6 40.3125 C-7.1796875 42.29296875 -7.1796875 42.29296875 -9 44.3125 C-11.4453125 44.73828125 -11.4453125 44.73828125 -14.125 44.625 C-15.45917969 44.58826172 -15.45917969 44.58826172 -16.8203125 44.55078125 C-19 44.3125 -19 44.3125 -20 43.3125 C-20.07319621 40.61595146 -20.09242537 37.94558542 -20.0625 35.25 C-20.05798828 34.49138672 -20.05347656 33.73277344 -20.04882812 32.95117188 C-20.0370068 31.07158129 -20.01907078 29.19203101 -20 27.3125 C-16.04 26.9825 -12.08 26.6525 -8 26.3125 C-8.02320313 24.60320312 -8.04640625 22.89390625 -8.0703125 21.1328125 C-8.08906684 18.90104602 -8.1072674 16.66927483 -8.125 14.4375 C-8.14175781 13.30957031 -8.15851563 12.18164062 -8.17578125 11.01953125 C-8.18222656 9.94316406 -8.18867188 8.86679688 -8.1953125 7.7578125 C-8.20578613 6.76281738 -8.21625977 5.76782227 -8.22705078 4.74267578 C-7.74298376 -0.43840285 -4.37485025 0.0157747 0 0 Z " fill="#DAB788" transform="translate(344,128.6875)"/>
<path d="M0 0 C0.60585938 0.19335938 1.21171875 0.38671875 1.8359375 0.5859375 C7.21617814 2.25795074 12.50468937 3.56161058 18.06640625 4.47265625 C18.70449219 4.64667969 19.34257812 4.82070312 20 5 C20.33 5.66 20.66 6.32 21 7 C20.34 7 19.68 7 19 7 C19 7.66 19 8.32 19 9 C18.34 9 17.68 9 17 9 C17 9.99 17 10.98 17 12 C18.32 12.66 19.64 13.32 21 14 C21 14.66 21 15.32 21 16 C23.31 16.33 25.62 16.66 28 17 C28 17.99 28 18.98 28 20 C26.68 19.67 25.36 19.34 24 19 C24 19.66 24 20.32 24 21 C24.95712891 21.09087891 24.95712891 21.09087891 25.93359375 21.18359375 C26.75988281 21.26738281 27.58617187 21.35117188 28.4375 21.4375 C29.67306641 21.55931641 29.67306641 21.55931641 30.93359375 21.68359375 C33 22 33 22 34 23 C34.23363881 24.84891946 34.41303635 26.70488031 34.5625 28.5625 C34.64628906 29.57441406 34.73007812 30.58632812 34.81640625 31.62890625 C34.87699219 32.41136719 34.93757813 33.19382813 35 34 C32.5705484 30.3558226 32.83820425 28.28758728 33 24 C32.0925 24.04125 31.185 24.0825 30.25 24.125 C26.97821256 23.99916202 25.8200547 23.41002735 23 22 C19.83304044 21.83275263 19.83304044 21.83275263 17 22 C17 24.31 17 26.62 17 29 C16.67 29 16.34 29 16 29 C15.80467039 27.2300132 15.61901118 25.45895721 15.4375 23.6875 C15.33308594 22.70136719 15.22867187 21.71523437 15.12109375 20.69921875 C15 18 15 18 16 15 C14.576875 14.62875 14.576875 14.62875 13.125 14.25 C8.27312581 12.87513627 3.65310286 10.92865028 -1 9 C-1.09765625 2.84765625 -1.09765625 2.84765625 -1 1 C-0.67 0.67 -0.34 0.34 0 0 Z M19 18 C20.485 18.99 20.485 18.99 22 20 C22.66 19.34 23.32 18.68 24 18 C22.35 18 20.7 18 19 18 Z " fill="#FBDD59" transform="translate(286,104)"/>
<path d="M0 0 C1.98 0 3.96 0 6 0 C7.10228696 4.40914783 7.07654536 8.48382401 7 13 C7.66 13 8.32 13 9 13 C8.79375 12.34 8.5875 11.68 8.375 11 C7.86296237 6.90369892 8.85966299 3.95764021 10 0 C11.98 0 13.96 0 16 0 C16 5.94 16 11.88 16 18 C5.11111111 19.55555556 5.11111111 19.55555556 0 17 C0 11.39 0 5.78 0 0 Z " fill="#020203" transform="translate(379,249)"/>
<path d="M0 0 C0.33 0 0.66 0 1 0 C1.02542668 7.68635346 1.0428991 15.37269601 1.05493164 23.05908203 C1.05994971 25.67204188 1.06676562 28.28499894 1.07543945 30.89794922 C1.08761575 34.66113984 1.09325368 38.42429322 1.09765625 42.1875 C1.10281754 43.34926758 1.10797882 44.51103516 1.11329651 45.70800781 C1.11369894 51.57168136 0.89499752 57.20264581 0 63 C-2.24732102 63.84124316 -4.49738785 64.67314832 -6.75 65.5 C-7.70132812 65.85771484 -7.70132812 65.85771484 -8.671875 66.22265625 C-12.03286607 67.44801758 -14.36871587 68 -18 68 C-19.04809589 64.85571232 -18.96643398 63.63317558 -18.4765625 60.44140625 C-18.34290283 59.51070312 -18.20924316 58.58 -18.0715332 57.62109375 C-17.92417725 56.61175781 -17.77682129 55.60242188 -17.625 54.5625 C-15.72933763 40.74009553 -15.28126465 26.93580876 -15 13 C-14.67 13 -14.34 13 -14 13 C-14.00523682 14.06436279 -14.01047363 15.12872559 -14.01586914 16.2253418 C-14.0340105 20.18561966 -14.04546537 24.14589386 -14.05493164 28.10620117 C-14.05995099 29.81812152 -14.06676785 31.53003761 -14.07543945 33.24194336 C-14.08761021 35.70687922 -14.09325238 38.17175825 -14.09765625 40.63671875 C-14.10281754 41.39836838 -14.10797882 42.16001801 -14.11329651 42.94474792 C-14.11361525 45.98474935 -14.03424657 48.82924095 -13.43530273 51.81567383 C-12.81454144 54.93062127 -13.85474981 57.1031907 -15 60 C-14.34 60.33 -13.68 60.66 -13 61 C-12.67 61.33 -12.34 61.66 -12 62 C-9.32941149 62.14115161 -6.67567762 62.04247107 -4 62 C-4 59.69 -4 57.38 -4 55 C-2.515 54.505 -2.515 54.505 -1 54 C-1.08306396 53.07703125 -1.16612793 52.1540625 -1.25170898 51.203125 C-2.11815717 40.04200403 -1.75396131 29.16140017 -1.0625 18 C-0.96071602 16.24223781 -0.85979995 14.48442513 -0.75976562 12.7265625 C-0.51646959 8.4837289 -0.26158699 4.24174353 0 0 Z " fill="#DEB97F" transform="translate(320,138)"/>
<path d="M0 0 C9.66640442 -0.31867267 19.74778126 -0.08407291 29 3 C28.67 3.99 28.34 4.98 28 6 C25.4375 7.1875 25.4375 7.1875 23 8 C23.99 10.31 24.98 12.62 26 15 C19.73 14.67 13.46 14.34 7 14 C12.375 8.625 12.375 8.625 16 8 C16.66 7.34 17.32 6.68 18 6 C17.34 5.67 16.68 5.34 16 5 C15.67 5.66 15.34 6.32 15 7 C12 6 12 6 10.63671875 4.44921875 C8.35075792 2.4251341 6.81110341 2.6956713 3.8125 2.8125 C2.91144531 2.83957031 2.01039063 2.86664063 1.08203125 2.89453125 C0.39496094 2.92933594 -0.29210937 2.96414062 -1 3 C-0.67 2.01 -0.34 1.02 0 0 Z " fill="#A8A3C2" transform="translate(343,201)"/>
<path d="M0 0 C0.33 0.66 0.66 1.32 1 2 C-0.2065625 2.433125 -0.2065625 2.433125 -1.4375 2.875 C-4.1326468 3.73262568 -4.1326468 3.73262568 -5 6 C-2.525 6.495 -2.525 6.495 0 7 C-0.33 7.99 -0.66 8.98 -1 10 C-3.0625 10.6875 -3.0625 10.6875 -5 11 C-5 11.99 -5 12.98 -5 14 C-13.04924606 16.25943749 -20.70316995 16.19676277 -29 16 C-29 15.67 -29 15.34 -29 15 C-26.36 14.67 -23.72 14.34 -21 14 C-21 13.01 -21 12.02 -21 11 C-18.69 10.34 -16.38 9.68 -14 9 C-14 9.66 -14 10.32 -14 11 C-13.01 10.67 -12.02 10.34 -11 10 C-11.66 8.35 -12.32 6.7 -13 5 C-13.75925781 4.95101562 -14.51851563 4.90203125 -15.30078125 4.8515625 C-16.79158203 4.73941406 -16.79158203 4.73941406 -18.3125 4.625 C-19.29863281 4.55539063 -20.28476562 4.48578125 -21.30078125 4.4140625 C-24 4 -24 4 -27 2 C-13.635 1.01 -13.635 1.01 0 0 Z " fill="#CCA78B" transform="translate(373,111)"/>
<path d="M0 0 C1.216875 0.04125 2.43375 0.0825 3.6875 0.125 C3.6875 0.455 3.6875 0.785 3.6875 1.125 C1.7075 1.125 -0.2725 1.125 -2.3125 1.125 C-2.3125 4.755 -2.3125 8.385 -2.3125 12.125 C-3.7665625 12.2796875 -3.7665625 12.2796875 -5.25 12.4375 C-9.1227741 12.97385161 -12.63388971 14.16550778 -16.296875 15.50390625 C-18.3125 16.125 -18.3125 16.125 -21.3125 16.125 C-21.3125 13.485 -21.3125 10.845 -21.3125 8.125 C-19.41795176 7.16412864 -17.52180419 6.20641031 -15.625 5.25 C-14.56925781 4.71632812 -13.51351563 4.18265625 -12.42578125 3.6328125 C-4.60271668 -0.15602429 -4.60271668 -0.15602429 0 0 Z " fill="#DDAA6D" transform="translate(306.3125,207.875)"/>
<path d="M0 0 C0.99 0 1.98 0 3 0 C4.28317892 3.84953676 4.06643637 6.94738135 4 11 C8.29 11.99 12.58 12.98 17 14 C17 14.99 17 15.98 17 17 C12.71 17.66 8.42 18.32 4 19 C4 21.31 4 23.62 4 26 C3.34 26 2.68 26 2 26 C1.83197949 24.54182203 1.66562857 23.0834516 1.5 21.625 C1.4071875 20.81289062 1.314375 20.00078125 1.21875 19.1640625 C1 17 1 17 1 15 C0.29875 15.350625 -0.4025 15.70125 -1.125 16.0625 C-4.50268586 17.1639193 -6.58080593 16.79516141 -10 16 C-10 15.01 -10 14.02 -10 13 C-8.329375 12.814375 -8.329375 12.814375 -6.625 12.625 C-2.96896323 12.3534187 -2.96896323 12.3534187 -1 10 C-0.53837573 7.56747339 -0.53837573 7.56747339 -0.375 4.875 C-0.30023438 3.96492188 -0.22546875 3.05484375 -0.1484375 2.1171875 C-0.09945313 1.41851562 -0.05046875 0.71984375 0 0 Z " fill="#CAC7CF" transform="translate(397,95)"/>
<path d="M0 0 C2.375 0.25 2.375 0.25 5 1 C6.3125 3.0625 6.3125 3.0625 7 5 C6.34 5 5.68 5 5 5 C5.309375 5.804375 5.309375 5.804375 5.625 6.625 C6.1314747 9.83267308 5.15400225 12.01317066 4 15 C4.66 15 5.32 15 6 15 C6 15.66 6 16.32 6 17 C6.66 17.33 7.32 17.66 8 18 C8 18.99 8 19.98 8 21 C7.01 21.66 6.02 22.32 5 23 C5.99 23.66 6.98 24.32 8 25 C8.70052461 27.663063 8.77744818 30.24035737 9 33 C7.35 33 5.7 33 4 33 C1.53953824 28.1886517 1.59690025 23.47103501 1.4375 18.1875 C1.22284156 12.06288374 0.85330315 6.07185132 0 0 Z " fill="#A3A3CD" transform="translate(368,169)"/>
<path d="M0 0 C1.99954746 -0.04254356 4.00041636 -0.04080783 6 0 C6.33 0.33 6.66 0.66 7 1 C8.68183948 1.23287008 10.3712416 1.41264166 12.0625 1.5625 C12.98160156 1.64628906 13.90070313 1.73007813 14.84765625 1.81640625 C15.91306641 1.90728516 15.91306641 1.90728516 17 2 C17 2.33 17 2.66 17 3 C13.37 3 9.74 3 6 3 C6 3.66 6 4.32 6 5 C6.99 5 7.98 5 9 5 C9 5.66 9 6.32 9 7 C10.0725 6.979375 11.145 6.95875 12.25 6.9375 C15.14790424 6.9857984 17.28612141 7.13155885 20 8 C20 8.66 20 9.32 20 10 C19.34 10 18.68 10 18 10 C18 10.66 18 11.32 18 12 C10.6094524 12.14715692 3.35575165 11.70776992 -4 11 C-4 10.67 -4 10.34 -4 10 C-1.69 10 0.62 10 3 10 C3 9.01 3 8.02 3 7 C2.34 7 1.68 7 1 7 C0.67 4.69 0.34 2.38 0 0 Z " fill="#F6C456" transform="translate(319,113)"/>
<path d="M0 0 C1.58294782 -0.05437607 3.16644256 -0.09296271 4.75 -0.125 C5.63171875 -0.14820313 6.5134375 -0.17140625 7.421875 -0.1953125 C10.1135858 0.00860498 11.69904974 0.63448279 14 2 C12.88625 2.474375 11.7725 2.94875 10.625 3.4375 C8.73289006 4.25306463 6.84287291 5.07856355 5 6 C4.34227572 9.02934491 4.34227572 9.02934491 4 12 C5.093125 12 6.18625 12 7.3125 12 C9.54166667 12 11.77083333 12 14 12 C12.8203125 13.98046875 12.8203125 13.98046875 11 16 C8.5546875 16.42578125 8.5546875 16.42578125 5.875 16.3125 C4.54082031 16.27576172 4.54082031 16.27576172 3.1796875 16.23828125 C1 16 1 16 0 15 C-0.07313567 12.46950598 -0.09247527 9.96695163 -0.0625 7.4375 C-0.05798828 6.72658203 -0.05347656 6.01566406 -0.04882812 5.28320312 C-0.03700864 3.52209987 -0.01907263 1.76103964 0 0 Z " fill="#E1B06F" transform="translate(324,157)"/>
<path d="M0 0 C3.81346737 0.60357038 6.82283166 1.73511092 10.25 3.5 C11.55710937 4.16515625 11.55710937 4.16515625 12.890625 4.84375 C15 6 15 6 16 7 C15.71269945 9.33944736 15.38063221 11.6739143 15 14 C7.28835349 12.52033871 -0.35656288 10.79704634 -8 9 C-8 8.01 -8 7.02 -8 6 C-5.69 5.34 -3.38 4.68 -1 4 C-1 4.66 -1 5.32 -1 6 C-0.01 6.33 0.98 6.66 2 7 C2.33 7.66 2.66 8.32 3 9 C5.02463255 9.65213292 5.02463255 9.65213292 7 10 C7.66 9.01 8.32 8.02 9 7 C9.66 7 10.32 7 11 7 C11 6.34 11 5.68 11 5 C10.37351562 4.80664062 9.74703125 4.61328125 9.1015625 4.4140625 C8.28429687 4.15367187 7.46703125 3.89328125 6.625 3.625 C5.81289063 3.36976563 5.00078125 3.11453125 4.1640625 2.8515625 C2 2 2 2 0 0 Z " fill="#969FCD" transform="translate(390,210)"/>
<path d="M0 0 C1.65 0 3.3 0 5 0 C5.33 0.66 5.66 1.32 6 2 C8.97 2 11.94 2 15 2 C15.33820166 3.5823006 15.67035939 5.16589375 16 6.75 C16.185625 7.63171875 16.37125 8.5134375 16.5625 9.421875 C17 12 17 12 17 16 C16.01 16 15.02 16 14 16 C14 13.03 14 10.06 14 7 C13.19175781 7.3609375 12.38351562 7.721875 11.55078125 8.09375 C10.48214844 8.5578125 9.41351563 9.021875 8.3125 9.5 C7.25675781 9.9640625 6.20101563 10.428125 5.11328125 10.90625 C2.14372184 11.94950801 0.10804937 12.23065301 -3 12 C-1.68 11.67 -0.36 11.34 1 11 C1.185625 10.0409375 1.185625 10.0409375 1.375 9.0625 C1.58125 8.381875 1.7875 7.70125 2 7 C2.66 6.67 3.32 6.34 4 6 C3.34 4.68 2.68 3.36 2 2 C1.01 2.33 0.02 2.66 -1 3 C-0.67 2.01 -0.34 1.02 0 0 Z " fill="#B5A8B6" transform="translate(383,109)"/>
<path d="M0 0 C0.33 0 0.66 0 1 0 C0.99476318 1.06436279 0.98952637 2.12872559 0.98413086 3.2253418 C0.9659895 7.18561966 0.95453463 11.14589386 0.94506836 15.10620117 C0.94004901 16.81812152 0.93323215 18.53003761 0.92456055 20.24194336 C0.91238979 22.70687922 0.90674762 25.17175825 0.90234375 27.63671875 C0.89718246 28.39836838 0.89202118 29.16001801 0.88670349 29.94474792 C0.88638475 32.98474935 0.96575343 35.82924095 1.56469727 38.81567383 C2.18545856 41.93062127 1.14525019 44.1031907 0 47 C0.66 47.33 1.32 47.66 2 48 C2.625 51.0625 2.625 51.0625 3 54 C0.03 54.495 0.03 54.495 -3 55 C-4.04809589 51.85571232 -3.96643398 50.63317558 -3.4765625 47.44140625 C-3.34290283 46.51070312 -3.20924316 45.58 -3.0715332 44.62109375 C-2.92417725 43.61175781 -2.77682129 42.60242188 -2.625 41.5625 C-0.72933763 27.74009553 -0.28126465 13.93580876 0 0 Z " fill="#DEB172" transform="translate(305,151)"/>
<path d="M0 0 C0.96099609 0.30744141 0.96099609 0.30744141 1.94140625 0.62109375 C6.97287851 2.18827364 11.75988003 3.43042174 17 4 C17 4.33 17 4.66 17 5 C13.37 5.66 9.74 6.32 6 7 C6 8.32 6 9.64 6 11 C6.763125 11.12375 7.52625 11.2475 8.3125 11.375 C11 12 11 12 14 14 C10.33827525 13.37321829 7.1181005 12.35548154 3.6875 10.9375 C2.36298828 10.39416016 2.36298828 10.39416016 1.01171875 9.83984375 C0.34785156 9.56269531 -0.31601562 9.28554687 -1 9 C-1.09765625 2.84765625 -1.09765625 2.84765625 -1 1 C-0.67 0.67 -0.34 0.34 0 0 Z " fill="#F7E46B" transform="translate(286,104)"/>
<path d="M0 0 C9.66640442 -0.31867267 19.74778126 -0.08407291 29 3 C28.67 3.99 28.34 4.98 28 6 C27.01 5.67 26.02 5.34 25 5 C22.27668512 4.76811378 19.74960731 4.86906632 17 5 C16.34 5.66 15.68 6.32 15 7 C12 6 12 6 10.63671875 4.44921875 C8.35075792 2.4251341 6.81110341 2.6956713 3.8125 2.8125 C2.91144531 2.83957031 2.01039063 2.86664063 1.08203125 2.89453125 C0.39496094 2.92933594 -0.29210937 2.96414062 -1 3 C-0.67 2.01 -0.34 1.02 0 0 Z " fill="#B4ACBB" transform="translate(343,201)"/>
<path d="M0 0 C0.99 0.33 1.98 0.66 3 1 C3.33 9.25 3.66 17.5 4 26 C9.17507544 26.24936191 9.17507544 26.24936191 14.35107422 26.47802734 C19.77777778 26.77777778 19.77777778 26.77777778 22 29 C18.17129832 30.27623389 15.32112662 29.67300468 11.375 29.15625 C8.8504229 28.83995661 8.8504229 28.83995661 6 30 C5.34 29.67 4.68 29.34 4 29 C4 29.66 4 30.32 4 31 C3.34 31 2.68 31 2 31 C1.97494385 30.16750732 1.9498877 29.33501465 1.92407227 28.47729492 C1.82887306 25.38537167 1.72964328 22.29361148 1.62768555 19.2019043 C1.56312994 17.20696681 1.5032217 15.21188071 1.44335938 13.21679688 C1.40146484 11.96318359 1.35957031 10.70957031 1.31640625 9.41796875 C1.27974854 8.26063232 1.24309082 7.1032959 1.20532227 5.91088867 C1.11671491 2.9356554 1.11671491 2.9356554 0 0 Z " fill="#C7B09F" transform="translate(350,129)"/>
<path d="M0 0 C0.33 0 0.66 0 1 0 C2.82277192 8.12109989 3.17893004 15.67975299 3 24 C-1.95 23.67 -6.9 23.34 -12 23 C-12 22.67 -12 22.34 -12 22 C-8.04 21.67 -4.08 21.34 0 21 C0 14.07 0 7.14 0 0 Z " fill="#DBBF95" transform="translate(336,134)"/>
<path d="M0 0 C3 3 3 3 3.34057617 4.99291992 C3.3170105 6.10050659 3.3170105 6.10050659 3.29296875 7.23046875 C3.28330078 8.03291016 3.27363281 8.83535156 3.26367188 9.66210938 C3.23853516 10.49548828 3.21339844 11.32886719 3.1875 12.1875 C3.16719727 13.4549707 3.16719727 13.4549707 3.14648438 14.74804688 C3.11115799 16.83230384 3.05735139 18.91623277 3 21 C3.66 21.33 4.32 21.66 5 22 C3.35 22.66 1.7 23.32 0 24 C0 16.08 0 8.16 0 0 Z " fill="#C9B6AB" transform="translate(336,173)"/>
<path d="M0 0 C0.33 0.66 0.66 1.32 1 2 C0.236875 2.28875 -0.52625 2.5775 -1.3125 2.875 C-4.15029308 3.96269013 -4.15029308 3.96269013 -7 6 C-9.90065856 5.87237102 -12.63381259 5.63279632 -15.5 5.25 C-16.65822266 5.11851563 -16.65822266 5.11851563 -17.83984375 4.984375 C-21.54693304 4.52179193 -23.84893146 4.10071236 -27 2 C-13.635 1.01 -13.635 1.01 0 0 Z " fill="#CDB28F" transform="translate(373,111)"/>
<path d="M0 0 C0.66 0.66 1.32 1.32 2 2 C1.96712417 4.72869407 1.43602229 7.2966618 1 10 C-2.96 11.32 -6.92 12.64 -11 14 C-11 12.35 -11 10.7 -11 9 C-8.36 9 -5.72 9 -3 9 C-3.061875 7.88625 -3.12375 6.7725 -3.1875 5.625 C-3.125625 4.42875 -3.06375 3.2325 -3 2 C-2.01 1.34 -1.02 0.68 0 0 Z " fill="#D8AF7D" transform="translate(319,191)"/>
<path d="M0 0 C0.66 0 1.32 0 2 0 C2.474375 0.495 2.94875 0.99 3.4375 1.5 C4.99969942 3.34626591 4.99969942 3.34626591 8 3 C8 3.66 8 4.32 8 5 C8.63808594 5.06058594 9.27617187 5.12117188 9.93359375 5.18359375 C10.75988281 5.26738281 11.58617187 5.35117188 12.4375 5.4375 C13.67306641 5.55931641 13.67306641 5.55931641 14.93359375 5.68359375 C17 6 17 6 18 7 C18.23363881 8.84891946 18.41303635 10.70488031 18.5625 12.5625 C18.68818359 14.08037109 18.68818359 14.08037109 18.81640625 15.62890625 C18.87699219 16.41136719 18.93757813 17.19382813 19 18 C16.5705484 14.3558226 16.83820425 12.28758728 17 8 C16.0925 8.04125 15.185 8.0825 14.25 8.125 C10.97821256 7.99916202 9.8200547 7.41002735 7 6 C3.83304044 5.83275263 3.83304044 5.83275263 1 6 C1 8.31 1 10.62 1 13 C0.67 13 0.34 13 0 13 C-0.19466332 11.20909747 -0.38051213 9.41723495 -0.5625 7.625 C-0.66691406 6.62726563 -0.77132813 5.62953125 -0.87890625 4.6015625 C-1 2 -1 2 0 0 Z " fill="#F6D783" transform="translate(302,120)"/>
<path d="M0 0 C0.33 0 0.66 0 1 0 C1.33 17.49 1.66 34.98 2 53 C1.01 52.67 0.02 52.34 -1 52 C-0.67 34.84 -0.34 17.68 0 0 Z " fill="#9C9EBF" transform="translate(385,141)"/>
<path d="M0 0 C2.475 0.495 2.475 0.495 5 1 C6.3125 3.0625 6.3125 3.0625 7 5 C6.34 5 5.68 5 5 5 C5.19464844 5.56203125 5.38929688 6.1240625 5.58984375 6.703125 C6.09395636 9.52615562 5.54545539 11.07636135 4.5625 13.75 C4.27503906 14.54921875 3.98757813 15.3484375 3.69140625 16.171875 C3.46324219 16.77515625 3.23507812 17.3784375 3 18 C2.67 18 2.34 18 2 18 C1.34 12.06 0.68 6.12 0 0 Z " fill="#ACA6C3" transform="translate(368,169)"/>
<path d="M0 0 C2 3 2 3 2 6 C-4.4 7.23076923 -4.4 7.23076923 -7.4375 6.0625 C-7.953125 5.711875 -8.46875 5.36125 -9 5 C-8.625 3.0625 -8.625 3.0625 -8 1 C-5.21136993 -0.39431504 -3.07921132 -0.25660094 0 0 Z " fill="#B6A2B6" transform="translate(351,192)"/>
<path d="M0 0 C10.23 0.66 20.46 1.32 31 2 C31 2.99 31 3.98 31 5 C27.81185409 4.88899025 24.62477124 4.75863821 21.4375 4.625 C20.54224609 4.5940625 19.64699219 4.563125 18.72460938 4.53125 C11.70249171 4.22258549 6.35500581 3.17750291 0 0 Z " fill="#F0C17C" transform="translate(315,111)"/>
<path d="M0 0 C0.33 0 0.66 0 1 0 C1 4.29 1 8.58 1 13 C2.588125 12.835 4.17625 12.67 5.8125 12.5 C8.57507433 12.21297929 11.22003893 12 14 12 C12.8203125 13.98046875 12.8203125 13.98046875 11 16 C8.5546875 16.42578125 8.5546875 16.42578125 5.875 16.3125 C4.54082031 16.27576172 4.54082031 16.27576172 3.1796875 16.23828125 C1 16 1 16 0 15 C-0.07313567 12.46950598 -0.09247527 9.96695163 -0.0625 7.4375 C-0.05798828 6.72658203 -0.05347656 6.01566406 -0.04882812 5.28320312 C-0.03700864 3.52209987 -0.01907263 1.76103964 0 0 Z " fill="#C9A97D" transform="translate(324,157)"/>
<path d="M0 0 C2.87667975 0.03098757 5.43522999 0.20757666 8.1875 1.125 C8.1875 1.785 8.1875 2.445 8.1875 3.125 C7.5275 3.125 6.8675 3.125 6.1875 3.125 C6.1875 3.785 6.1875 4.445 6.1875 5.125 C2.8875 5.125 -0.4125 5.125 -3.8125 5.125 C-4.1425 3.805 -4.4725 2.485 -4.8125 1.125 C-3.8125 0.125 -3.8125 0.125 0 0 Z " fill="#EDB452" transform="translate(330.8125,119.875)"/>
<path d="M0 0 C3.3 0 6.6 0 10 0 C7 3 7 3 5.3125 4.3125 C3.37364922 6.80530815 3.79620238 8.94303577 4 12 C3.01 12.495 3.01 12.495 2 13 C1.34 8.71 0.68 4.42 0 0 Z " fill="#DEB97E" transform="translate(336,132)"/>
<path d="M0 0 C-0.33 1.98 -0.66 3.96 -1 6 C-4.75 7.125 -4.75 7.125 -7 6 C-7 6.99 -7 7.98 -7 9 C-7.66 9 -8.32 9 -9 9 C-9.3125 6.6875 -9.3125 6.6875 -9 4 C-6.625 2.25 -6.625 2.25 -4 1 C-2 0 -2 0 0 0 Z " fill="#E0A85B" transform="translate(295,214)"/>
<path d="M0 0 C0.96099609 0.30744141 0.96099609 0.30744141 1.94140625 0.62109375 C6.97287851 2.18827364 11.75988003 3.43042174 17 4 C17 4.33 17 4.66 17 5 C13.37 5 9.74 5 6 5 C6 4.34 6 3.68 6 3 C4.35 3 2.7 3 1 3 C0.67 4.98 0.34 6.96 0 9 C-0.33 9 -0.66 9 -1 9 C-1.09765625 2.84765625 -1.09765625 2.84765625 -1 1 C-0.67 0.67 -0.34 0.34 0 0 Z " fill="#EEDF88" transform="translate(286,104)"/>
<path d="M0 0 C0.33 0.66 0.66 1.32 1 2 C0.00097656 2.44730469 -0.99804688 2.89460937 -2.02734375 3.35546875 C-3.33118243 3.96517749 -4.63454355 4.5759082 -5.9375 5.1875 C-6.9265332 5.62545898 -6.9265332 5.62545898 -7.93554688 6.07226562 C-10.10772861 7.06018878 -10.10772861 7.06018878 -13 9 C-14.05150307 11.61243936 -14.05150307 11.61243936 -14 14 C-13.34 14.33 -12.68 14.66 -12 15 C-12.99 15 -13.98 15 -15 15 C-15 12.36 -15 9.72 -15 7 C-13.06374902 6.01836578 -11.12595461 5.03977546 -9.1875 4.0625 C-8.10855469 3.51722656 -7.02960938 2.97195312 -5.91796875 2.41015625 C-3 1 -3 1 0 0 Z " fill="#D7AF7E" transform="translate(300,209)"/>
<path d="M0 0 C0.99 0 1.98 0 3 0 C3 7.26 3 14.52 3 22 C0.57479974 18.36219961 0.80505095 15.7486926 0.9375 11.5625 C1.149637 5.69634669 1.149637 5.69634669 0 0 Z " fill="#CFAC87" transform="translate(349,132)"/>
<path d="M0 0 C2.64 0.33 5.28 0.66 8 1 C8 1.99 8 2.98 8 4 C3.545 4.495 3.545 4.495 -1 5 C-0.67 3.35 -0.34 1.7 0 0 Z " fill="#C6C0C7" transform="translate(406,108)"/>
<path d="M0 0 C-0.33 1.32 -0.66 2.64 -1 4 C-2.32 4 -3.64 4 -5 4 C-5.99 4.495 -5.99 4.495 -7 5 C-9.125 4.0625 -9.125 4.0625 -11 3 C-11 2.34 -11 1.68 -11 1 C-7.32589215 -0.17571451 -3.83070817 -0.07366746 0 0 Z " fill="#CBA882" transform="translate(324,204)"/>
<path d="M0 0 C1.65 0 3.3 0 5 0 C5.33820166 1.5823006 5.67035939 3.16589375 6 4.75 C6.185625 5.63171875 6.37125 6.5134375 6.5625 7.421875 C7 10 7 10 7 14 C6.01 14 5.02 14 4 14 C4 10.04 4 6.08 4 2 C2.68 2 1.36 2 0 2 C0 1.34 0 0.68 0 0 Z " fill="#BEBBC6" transform="translate(393,111)"/>
<path d="M0 0 C1.98 1.65 3.96 3.3 6 5 C5.01 5.66 4.02 6.32 3 7 C2.34 6.67 1.68 6.34 1 6 C-1.62113708 6 -3.50935112 6.31292445 -6 7 C-6 6.01 -6 5.02 -6 4 C-4.35 4 -2.7 4 -1 4 C-0.67 2.68 -0.34 1.36 0 0 Z " fill="#DCD8DD" transform="translate(398,105)"/>
<path d="M0 0 C2.31 0 4.62 0 7 0 C7 0.66 7 1.32 7 2 C9.31 2.33 11.62 2.66 14 3 C14 3.99 14 4.98 14 6 C8.31953056 5.05944297 4.27575688 4.13782924 0 0 Z " fill="#FADB68" transform="translate(300,118)"/>
<path d="M0 0 C2.97 0 5.94 0 9 0 C7.34387276 3.31225448 4.35502069 3.76982575 1 5 C-1.9375 5.1875 -1.9375 5.1875 -4 5 C-2.68 4.67 -1.36 4.34 0 4 C0 2.68 0 1.36 0 0 Z " fill="#AB9DA8" transform="translate(384,116)"/>
<path d="M0 0 C1.95803507 -0.05389087 3.91648909 -0.09274217 5.875 -0.125 C7.51082031 -0.15980469 7.51082031 -0.15980469 9.1796875 -0.1953125 C12 0 12 0 14 2 C10.6888987 3.10370043 8.75251051 2.92673641 5.3125 2.5625 C4.31863281 2.46066406 3.32476562 2.35882813 2.30078125 2.25390625 C1.54152344 2.17011719 0.78226562 2.08632812 0 2 C0 1.34 0 0.68 0 0 Z " fill="#C5B7BB" transform="translate(358,156)"/>
<path d="M0 0 C3.96 0 7.92 0 12 0 C12 0.99 12 1.98 12 3 C10.18674449 2.88648483 8.37436643 2.75887039 6.5625 2.625 C5.04849609 2.52058594 5.04849609 2.52058594 3.50390625 2.4140625 C2.67761719 2.27742188 1.85132813 2.14078125 1 2 C0.67 1.34 0.34 0.68 0 0 Z " fill="#E6B385" transform="translate(334,113)"/>
<path d="M0 0 C0 0.33 0 0.66 0 1 C-4.62 1 -9.24 1 -14 1 C-14 0.67 -14 0.34 -14 0 C-8.48727081 -1.71084699 -5.46809845 -2.4606443 0 0 Z " fill="#C5A786" transform="translate(358,126)"/>
<path d="M0 0 C2.475 0.99 2.475 0.99 5 2 C5 3.65 5 5.3 5 7 C3.35 6.67 1.7 6.34 0 6 C-1.125 2.25 -1.125 2.25 0 0 Z " fill="#B5A6B8" transform="translate(370,153)"/>
<path d="M0 0 C4.455 0.99 4.455 0.99 9 2 C9 2.99 9 3.98 9 5 C7.35 5 5.7 5 4 5 C3.67 4.01 3.34 3.02 3 2 C2.01 2 1.02 2 0 2 C0 1.34 0 0.68 0 0 Z " fill="#A8999D" transform="translate(354,168)"/>
<path d="M0 0 C2.475 0.495 2.475 0.495 5 1 C5 1.99 5 2.98 5 4 C3.35 4.33 1.7 4.66 0 5 C0 3.35 0 1.7 0 0 Z " fill="#E3AE5C" transform="translate(326,158)"/>
<path d="M0 0 C0.33 0 0.66 0 1 0 C0.67 4.29 0.34 8.58 0 13 C-0.99 12.67 -1.98 12.34 -3 12 C-2.01 8.04 -1.02 4.08 0 0 Z " fill="#A69CAB" transform="translate(387,126)"/>
<path d="M0 0 C1.5 1.25 1.5 1.25 3 3 C3 4.32 3 5.64 3 7 C2.34 7 1.68 7 1 7 C1 6.34 1 5.68 1 5 C-0.32 5 -1.64 5 -3 5 C-2.625 3.0625 -2.625 3.0625 -2 1 C-1.34 0.67 -0.68 0.34 0 0 Z " fill="#9DA7DB" transform="translate(402,217)"/>
<path d="M0 0 C1.134375 0.020625 2.26875 0.04125 3.4375 0.0625 C1.27062509 2.33771866 -1.01870509 4.22044162 -3.5625 6.0625 C-3.94468767 4.40635343 -4.27645102 2.73792976 -4.5625 1.0625 C-3.5625 0.0625 -3.5625 0.0625 0 0 Z " fill="#DEB067" transform="translate(342.5625,131.9375)"/>
<path d="M0 0 C2.64 0 5.28 0 8 0 C6.875 1.5 6.875 1.5 5 3 C1.8125 3.1875 1.8125 3.1875 -1 3 C-0.67 2.01 -0.34 1.02 0 0 Z " fill="#C3B7B7" transform="translate(343,201)"/>
<path d="M0 0 C0.33 0.66 0.66 1.32 1 2 C1.66 2.33 2.32 2.66 3 3 C2.01 4.485 2.01 4.485 1 6 C0.34 5.67 -0.32 5.34 -1 5 C-1.33 5.66 -1.66 6.32 -2 7 C-2 5.02 -2 3.04 -2 1 C-1.34 0.67 -0.68 0.34 0 0 Z " fill="#E9B152" transform="translate(309,176)"/>
<path d="M0 0 C2.64 0.33 5.28 0.66 8 1 C7.67 1.99 7.34 2.98 7 4 C4.36 3.34 1.72 2.68 -1 2 C-0.67 1.34 -0.34 0.68 0 0 Z " fill="#B0B0C8" transform="translate(364,203)"/>
<path d="M0 0 C0.33 0 0.66 0 1 0 C1 2.97 1 5.94 1 9 C0.67 8.34 0.34 7.68 0 7 C-0.99 6.67 -1.98 6.34 -3 6 C-2.01 4.02 -1.02 2.04 0 0 Z " fill="#9398C8" transform="translate(387,194)"/>
<path d="M0 0 C0.33 0.66 0.66 1.32 1 2 C-1.65228812 3.07525194 -4.28368454 4.09456151 -7 5 C-7.33 4.01 -7.66 3.02 -8 2 C-5.36 1.34 -2.72 0.68 0 0 Z " fill="#CEB39D" transform="translate(373,111)"/>
<path d="M0 0 C2.31 0 4.62 0 7 0 C6.34 1.32 5.68 2.64 5 4 C3.35 3.67 1.7 3.34 0 3 C0 2.01 0 1.02 0 0 Z " fill="#D4CBD1" transform="translate(387,108)"/>
<path d="M0 0 C2.38564077 0.57584432 4.66682784 1.22227595 7 2 C7 2.66 7 3.32 7 4 C4.69 3.67 2.38 3.34 0 3 C0 2.01 0 1.02 0 0 Z " fill="#8F97C4" transform="translate(382,216)"/>
<path d="M0 0 C0.99 0.33 1.98 0.66 3 1 C3 1.99 3 2.98 3 4 C0.69 3.67 -1.62 3.34 -4 3 C-2.1875 1.4375 -2.1875 1.4375 0 0 Z " fill="#D2A076" transform="translate(311,214)"/>
<path d="M0 0 C2.10633718 1.70828921 2.93801608 2.52148416 3.29296875 5.26171875 C3.25816406 6.06222656 3.22335937 6.86273438 3.1875 7.6875 C3.16042969 8.49574219 3.13335937 9.30398437 3.10546875 10.13671875 C3.07066406 10.75160156 3.03585937 11.36648437 3 12 C2.67 12 2.34 12 2 12 C2 9.69 2 7.38 2 5 C1.34 5 0.68 5 0 5 C0 3.35 0 1.7 0 0 Z " fill="#CEB59A" transform="translate(336,173)"/>
<path d="M0 0 C2.33944736 0.28730055 4.6739143 0.61936779 7 1 C4.36095629 2.41377341 1.92879371 3.37240135 -1 4 C-1 1 -1 1 0 0 Z " fill="#E2C898" transform="translate(338,129)"/>
</svg>
